<?xml version="1.0" encoding="UTF-8"?><svg id="Layer_1" xmlns="http://www.w3.org/2000/svg" viewBox="0 0 439.08 429.77"><defs><style>.cls-1,.cls-2{fill:#555;}.cls-3{stroke-width:1.1px;}.cls-3,.cls-4,.cls-5,.cls-6,.cls-7,.cls-8,.cls-9,.cls-10,.cls-11,.cls-12,.cls-13,.cls-14,.cls-15,.cls-16,.cls-17,.cls-18{stroke-linecap:round;stroke-linejoin:round;}.cls-3,.cls-5,.cls-6,.cls-7,.cls-8,.cls-11,.cls-13,.cls-14,.cls-15,.cls-19,.cls-20,.cls-18{fill:none;}.cls-3,.cls-21,.cls-22,.cls-23,.cls-6,.cls-8,.cls-24,.cls-2,.cls-14,.cls-25,.cls-26,.cls-27,.cls-17{stroke:#333;}.cls-28,.cls-29{fill:#fff;}.cls-4,.cls-5,.cls-10,.cls-30,.cls-31,.cls-16{stroke:#444;}.cls-4,.cls-7,.cls-8,.cls-11,.cls-12,.cls-15,.cls-32,.cls-26,.cls-27,.cls-20,.cls-17,.cls-18{stroke-width:1.1px;}.cls-4,.cls-33,.cls-31,.cls-34{fill:#aaa;}.cls-21,.cls-22,.cls-23,.cls-24,.cls-2,.cls-30,.cls-32,.cls-19,.cls-25,.cls-26,.cls-31,.cls-27,.cls-20{stroke-miterlimit:10;}.cls-21,.cls-9,.cls-35,.cls-16{fill:#bbb;}.cls-22,.cls-30,.cls-36{fill:#263238;}.cls-23,.cls-26,.cls-37{fill:#eee;}.cls-6{stroke-width:1.1px;}.cls-7,.cls-9,.cls-12,.cls-20{stroke:#263238;}.cls-38,.cls-24,.cls-10,.cls-12,.cls-32{fill:#777;}.cls-39,.cls-40,.cls-41{fill:#3e3e3e;}.cls-29,.cls-11,.cls-40,.cls-41,.cls-42,.cls-25,.cls-34{isolation:isolate;}.cls-29,.cls-41{opacity:.5;}.cls-11,.cls-15{stroke:#fff;}.cls-11,.cls-42{opacity:.2;}.cls-43{fill:#333;}.cls-40{opacity:.7;}.cls-13,.cls-19,.cls-18{stroke:#eee;}.cls-44{fill:#444;}.cls-14{stroke-width:2.21px;}.cls-32{stroke:#222221;}.cls-45{fill:#ccc;}.cls-25{opacity:.76;}.cls-25,.cls-17{fill:#efefef;}.cls-27{fill:#999;}.cls-46{fill:#888;}</style></defs><g id="freepik--background-simple--inject-75"><path class="cls-39" d="M426.09,166.72c-48.74-83.48-180.95-53.75-207.95-94.35-13.83-20.76-29.3-44.89-51.74-57.42C145.01,2.95,120.21-1.26,98.59,.32,21.38,5.97-11.35,75.05,3.48,150.91c19.8,101.19,109.5,204.56,216.06,205.28,55.74,.42,109-19.58,150.7-47.71l.93-.63c41.7-28.39,92.14-77.4,54.92-141.13Z"/><path class="cls-40" d="M426.09,166.72c-48.74-83.48-180.95-53.75-207.95-94.35-13.83-20.76-29.3-44.89-51.74-57.42C145.01,2.95,120.21-1.26,98.59,.32,21.38,5.97-11.35,75.05,3.48,150.91c19.8,101.19,109.5,204.56,216.06,205.28,55.74,.42,109-19.58,150.7-47.71l.93-.63c41.7-28.39,92.14-77.4,54.92-141.13Z"/></g><g id="freepik--Lines--inject-75"><path class="cls-18" d="M34.73,210.79h-5.42c-12.11,0-21.93,9.82-21.93,21.93v120.34c0,12.11,9.82,21.93,21.93,21.93H103.67c12.11,0,21.93-9.82,21.93-21.93h0"/><path class="cls-19" d="M155.54,72.12V26.47c0-7.41,5.99-13.41,13.4-13.43h96.7c7.42,0,13.43,6.01,13.43,13.43h0"/></g><g id="freepik--Shadow--inject-75"><ellipse class="cls-39" cx="219.54" cy="403.01" rx="191.52" ry="26.76"/><ellipse class="cls-41" cx="219.54" cy="403.01" rx="191.52" ry="26.76"/></g><g id="freepik--Window--inject-75"><path class="cls-17" d="M39,91.13v180.06c0,12.26,9.93,22.19,22.19,22.2H377.89c12.26,0,22.19-9.94,22.19-22.2V91.13c0-.53,0-1-.07-1.56-.81-11.62-10.47-20.64-22.12-20.64H61.19c-11.66,0-21.33,9.04-22.12,20.68-.05,.48-.07,1-.07,1.52Z"/><path class="cls-44" d="M400.01,87.15H39.07v183.31c0,12.66,9.87,22.92,22.04,22.92H377.96c12.17,0,22.04-10.26,22.04-22.92V87.15h.01Z"/><path class="cls-2" d="M400,87.15H39.44v183.31c0,12.66,9.86,22.92,22.02,22.92H377.97c12.16,0,22.02-10.26,22.02-22.92V87.15h.01Z"/><path class="cls-34" d="M48.67,97.89v165.91c-.06,11.39,9.15,20.68,20.57,20.75H368.71c11.42-.07,20.63-9.35,20.57-20.75V97.89H48.67Z"/><path class="cls-26" d="M39.07,89.61H400.01c-.81-11.62-10.47-20.64-22.12-20.64H61.19c-11.65,0-21.31,9.02-22.12,20.64Z"/><path class="cls-43" d="M99.66,79.25c0,2.17,1.76,3.93,3.93,3.93s3.93-1.76,3.93-3.93-1.76-3.93-3.93-3.93-3.93,1.76-3.93,3.93h0Z"/><path class="cls-43" d="M83.04,79.25c0,2.17,1.76,3.93,3.93,3.93s3.93-1.76,3.93-3.93-1.76-3.93-3.93-3.93-3.93,1.76-3.93,3.93h0Z"/><circle class="cls-43" cx="70.35" cy="79.25" r="3.93"/><path class="cls-20" d="M48.67,97.89v166.33c0,11.49,9.31,20.8,20.8,20.8H368.47c9.93,0,18.47-7.02,20.4-16.76v-.06c.25-1.32,.38-2.66,.38-4V97.89H48.67Z"/><path class="cls-44" d="M192.09,131.66v-16.74l17.6-3.91c.95-3.4,2.29-6.68,4-9.77l-2.13-3.35h83.1l-2.05,3.26c1.73,3.08,3.07,6.35,4,9.76l17.61,3.92v16.78l-17.61,3.93c-.93,3.43-2.27,6.74-4,9.84l9.67,15.21-11.85,11.84-15.2-9.68c-3.08,1.73-6.36,3.09-9.77,4.05l-3.92,17.55h-16.7l-3.94-17.59c-3.4-.96-6.66-2.32-9.74-4.05l-15.21,9.68-11.84-11.84,9.61-15.21c-1.7-3.09-3.05-6.36-4-9.75l-17.63-3.93Zm61,13.26c11.95,0,21.63-9.68,21.63-21.63s-9.68-21.63-21.63-21.63-21.63,9.68-21.63,21.63c0,11.94,9.67,21.62,21.61,21.63h.02Z"/><path class="cls-44" d="M86.22,243.84l-2.2-13.3,13.46-5.41c.31-2.83,.95-5.62,1.93-8.3l-9.69-10.79,7.84-11,13.36,5.67c2.22-1.78,4.64-3.28,7.22-4.48l.78-14.49,13.3-2.2,5.45,13.4c2.82,.33,5.6,.99,8.27,1.95l10.82-9.69,10.95,7.84-5.68,13.35c1.56,1.95,2.92,4.06,4.05,6.29,.15,.31,.31,.62,.45,.93l14.48,.8,2.21,13.28-2.18,.88-11.28,4.55c-.31,2.82-.96,5.59-1.93,8.26l9.71,10.86-7.85,11-13.35-5.7c-2.21,1.79-4.63,3.31-7.21,4.52l-.75,14.42-13.29,2.2-5.44-13.3c-2.83-.31-5.61-.96-8.28-1.94l-10.8,9.69-11-7.85,5.68-13.36c-1.81-2.22-3.34-4.66-4.55-7.25l-14.48-.83Zm37.3-.6c7.81,5.61,18.69,3.82,24.29-4,5.61-7.81,3.82-18.69-4-24.29-7.81-5.61-18.69-3.82-24.29,4,0,0,0,0,0,0-5.6,7.82-3.8,18.69,4.02,24.29h-.02Z"/></g><g><path class="cls-33" d="M388.13,98.95H49.36v181.79c0,1.31,1.18,2.37,2.64,2.37H366.14c12.15,0,22-8.83,22-19.71V98.95Z"/><path class="cls-44" d="M342.2,118.13h-59.72c-4,0-7.24,3.41-7.24,7.61V255.46c0,4.2,3.24,7.61,7.24,7.61h59.72c4,0,7.24-3.41,7.24-7.61V125.74c0-4.2-3.24-7.61-7.24-7.61Z"/><rect class="cls-10" x="195.23" y="126.25" width="65.53" height="127.71"/><rect class="cls-35" x="281.46" y="130.28" width="61.74" height="120.6"/><rect class="cls-31" x="200.07" y="132.31" width="55.89" height="6.09"/><path class="cls-44" d="M48.99,123.61c1.46-.82,3.01-1.46,4.62-1.91l1.87-8.35h7.94l1.85,8.35c1.62,.44,3.18,1.08,4.64,1.91l7.17-4.59,5.61,5.59-4.51,7.17c.83,1.46,1.47,3.02,1.91,4.64l8.35,1.85v7.94l-8.35,1.87c-.44,1.63-1.08,3.19-1.91,4.66l4.59,7.22-5.62,5.61-7.21-4.59c-1.46,.83-3.01,1.47-4.63,1.92l-1.86,8.34h-7.91l-1.86-8.34c-1.61-.45-3.16-1.1-4.62-1.92l-.37,.24v-37.81l.3,.2Zm10.44,29c5.67,0,10.26-4.59,10.26-10.26s-4.59-10.26-10.26-10.26c-5.67,0-10.26,4.59-10.26,10.26h0c0,5.67,4.59,10.26,10.25,10.26h.01Z"/><rect class="cls-21" x="228.95" y="145.5" width="26.03" height="28.37"/><rect class="cls-23" x="311.79" y="140.52" width="26.03" height="28.37"/><rect class="cls-21" x="203.93" y="232.65" width="13.93" height="15.2"/><rect class="cls-21" x="201.33" y="194.13" width="53" height="28.37"/><line class="cls-13" x1="224.14" y1="147.53" x2="202.95" y2="147.53"/><line class="cls-13" x1="224.14" y1="154.62" x2="202.95" y2="154.62"/><line class="cls-13" x1="224.14" y1="161.7" x2="202.95" y2="161.7"/><line class="cls-13" x1="224.14" y1="168.79" x2="202.95" y2="168.79"/><line class="cls-13" x1="253.38" y1="185.02" x2="202.31" y2="185.02"/><line class="cls-13" x1="253.38" y1="229.62" x2="202.31" y2="229.62"/><path class="cls-24" d="M172.66,126.25h-53.25c-2.3,0-4.16,1.86-4.16,4.16v43.47h61.67v-43.37c0-2.35-1.91-4.26-4.26-4.26Z"/><path class="cls-23" d="M172.77,126.25h-53.36c-2.3,0-4.16,1.86-4.16,4.16v5.98h61.67v-5.99c0-2.29-1.86-4.15-4.15-4.15Z"/><rect class="cls-9" x="156.02" y="143.75" width="16.12" height="16.4"/><rect class="cls-9" x="123.78" y="143.75" width="16.12" height="16.4"/><path class="cls-43" d="M121.18,132.01c0,1.38,1.07,2.5,2.38,2.5s2.38-1.12,2.38-2.5-1.07-2.5-2.38-2.5-2.38,1.12-2.38,2.5Z"/><ellipse class="cls-43" cx="134.71" cy="132.01" rx="2.33" ry="2.45"/><rect class="cls-38" x="358.3" y="108.62" width="19.84" height="163.6"/><rect class="cls-37" x="358.3" y="108.62" width="19.84" height="7.51"/><rect class="cls-16" x="363.84" y="121.14" width="9.52" height="11.69"/><rect class="cls-16" x="363.84" y="140.32" width="9.52" height="11.69"/><rect class="cls-16" x="363.84" y="159.53" width="9.52" height="11.69"/><rect class="cls-16" x="363.84" y="178.73" width="9.52" height="11.69"/><rect class="cls-16" x="363.84" y="197.92" width="9.52" height="11.69"/><rect class="cls-16" x="363.84" y="217.12" width="9.52" height="11.69"/><rect class="cls-16" x="363.84" y="236.33" width="9.52" height="11.69"/><rect class="cls-16" x="363.84" y="255.51" width="9.52" height="11.69"/><rect class="cls-44" x="93.18" y="106.94" width="252.4" height="6.69"/><rect class="cls-35" x="93.18" y="268.88" width="252.4" height="6.69"/><line class="cls-30" x1="283.45" y1="135.66" x2="339.34" y2="135.66"/><rect class="cls-23" x="287.31" y="229.92" width="13.93" height="15.2"/><line class="cls-5" x1="307.52" y1="144.8" x2="286.33" y2="144.8"/><line class="cls-5" x1="307.52" y1="151.89" x2="286.33" y2="151.89"/><line class="cls-5" x1="307.52" y1="166.06" x2="286.33" y2="166.06"/><line class="cls-5" x1="336.76" y1="182.29" x2="285.69" y2="182.29"/><line class="cls-5" x1="336.76" y1="226.89" x2="285.69" y2="226.89"/><rect class="cls-23" x="284.89" y="190.6" width="53" height="28.37"/></g><g id="freepik--Graphics--inject-75"><g><rect class="cls-27" x="22.93" y="182.38" width="130.8" height="171.01" rx="13.11" ry="13.11"/><rect class="cls-25" x="22.93" y="182.38" width="130.8" height="171.01" rx="13.11" ry="13.11"/><path class="cls-12" d="M165.9,208.41v144.79c0,7.24-5.86,13.11-13.1,13.12H48.21c-7.24,0-13.11-5.88-13.1-13.12h0V208.41c0-7.24,5.86-13.1,13.1-13.11h104.58c7.24,0,13.11,5.87,13.11,13.11h0Z"/><path class="cls-26" d="M165.9,208.4v7.75H35.11v-7.75c0-7.24,5.86-13.1,13.1-13.11h104.58c7.24,0,13.11,5.87,13.11,13.11h0Z"/><rect class="cls-33" x="47.41" y="225.14" width="32.18" height="5.4"/><rect class="cls-33" x="47.41" y="273.53" width="32.18" height="5.4"/><rect class="cls-33" x="47.41" y="317.41" width="32.18" height="5.4"/><rect class="cls-37" x="47.41" y="238.51" width="91.39" height="3.96"/><rect class="cls-37" x="47.41" y="246.08" width="74.91" height="3.86"/><rect class="cls-37" x="47.41" y="253.53" width="84.72" height="3.86"/><rect class="cls-37" x="47.41" y="260.97" width="84.72" height="3.86"/><rect class="cls-37" x="47.41" y="282.39" width="91.39" height="3.96"/><rect class="cls-37" x="47.41" y="289.96" width="74.91" height="3.86"/><rect class="cls-37" x="47.41" y="297.41" width="84.72" height="3.86"/><rect class="cls-37" x="47.41" y="330.57" width="91.39" height="3.96"/><rect class="cls-37" x="47.41" y="338.15" width="74.91" height="3.86"/><rect class="cls-37" x="47.41" y="345.6" width="84.72" height="3.86"/><circle class="cls-43" cx="53.29" cy="205.72" r="3.93"/><path class="cls-43" d="M82.6,205.72c0,2.17,1.76,3.93,3.93,3.93s3.93-1.76,3.93-3.93-1.76-3.93-3.93-3.93-3.93,1.76-3.93,3.93h0Z"/><path class="cls-43" d="M65.98,205.72c0,2.17,1.76,3.93,3.93,3.93s3.93-1.76,3.93-3.93-1.76-3.93-3.93-3.93-3.93,1.76-3.93,3.93h0Z"/></g><g><path class="cls-32" d="M356.31,38.9v58.52c0,8.63-7,15.63-15.63,15.63H205.89c-8.63,0-15.63-6.99-15.64-15.62h0V38.9c0-8.64,7-15.63,15.64-15.64h134.78c8.64,0,15.64,7,15.64,15.64Z"/><path class="cls-26" d="M356.31,38.9v1.34H190.25v-1.34c0-8.64,7-15.63,15.64-15.64h134.78c8.64,0,15.64,7,15.64,15.64Z"/><path class="cls-43" d="M214.65,34.55c-.94,.94-2.46,.94-3.39,0-.94-.94-.94-2.46,0-3.39s2.46-.94,3.39,0c0,0,0,0,0,0,.93,.94,.93,2.45,0,3.39Z"/><path class="cls-43" d="M225.77,34.55c-.94,.94-2.46,.94-3.39,0-.94-.94-.94-2.46,0-3.39s2.46-.94,3.39,0c0,0,0,0,0,0,.93,.94,.93,2.45,0,3.39Z"/><path class="cls-43" d="M236.89,34.55c-.94,.94-2.46,.94-3.39,0-.94-.94-.94-2.46,0-3.39s2.46-.94,3.39,0c0,0,0,0,0,0,.93,.94,.93,2.45,0,3.39Z"/><rect class="cls-4" x="200.84" y="51" width="54.28" height="46.92"/><rect class="cls-45" x="263.5" y="51" width="62.47" height="3.3"/><rect class="cls-45" x="263.5" y="57.83" width="47.92" height="3.29"/><rect class="cls-45" x="263.5" y="64.63" width="71.35" height="3.33"/><rect class="cls-45" x="263.5" y="71.26" width="60.76" height="3.33"/></g><g><rect class="cls-12" x="312.77" y="203.14" width="43.61" height="30.99" rx="6.53" ry="6.53"/><polyline class="cls-18" points="326.84 212.46 318.45 217.72 326.24 224.62"/><polyline class="cls-18" points="342.12 225.12 349.66 218.7 340.96 213"/><line class="cls-18" x1="330.92" y1="229.08" x2="337.11" y2="209.66"/></g></g><g id="freepik--Character--inject-75"><path class="cls-46" d="M266.4,398.08s-29,8.31-33.05,9.75c-3.68,1.3-13.66,4.8-21.15,3.71-.72-.1-1.44-.26-2.14-.46-7.59-2.26-11-4.37-12-9.14s2.78-8.29,6.42-10.54,23.38-4.6,23.38-4.6l4.77,1.4h0l33.77,9.88Z"/><path class="cls-28" d="M212.2,411.54c-.72-.1-1.44-.26-2.14-.46-7.59-2.26-11-4.37-12-9.14s2.78-8.29,6.42-10.54,23.38-4.6,23.38-4.6l4.77,1.4c-4.32,2-20.4,3.09-23.91,5.11s-5.2,5.82-3.13,11c1.11,2.7,4.07,5.35,6.61,7.23Z"/><path class="cls-7" d="M262.04,399.26s-21.78,5.64-30.42,9.25-25.11,5.19-31-2.25-.68-13.86,5.19-15.29,17.74-3.68,24.22-2.77"/><path class="cls-7" d="M212.63,411.15s-11.08-6.08-7.4-14.6c2.72-6.28,17.5-4.92,24.82-8.35"/><path class="cls-46" d="M354.73,412.89c-.3,3-1.35,5.81-4.35,7.58-2,1.18-4.84,1.88-8.91,1.84-10.17-.13-29.29-7.4-29.29-7.4l-17.9-9.9,9.31-14.73,2.55-4,6.58,1.48s5.45,3.09,10.93,5.55,18.79,3,23.48,6.77,8.11,7.87,7.6,12.81Z"/><path class="cls-28" d="M354.73,412.89c-.3,3-1.35,5.81-4.35,7.58,.86-2.95,.69-6.11-.5-8.94-2-4.49-8.51-8.45-17.07-9.11s-15.11-4.66-18.54-6.45c-2.68-1.39-8.33-4.43-10.68-5.69l2.55-4,6.58,1.48s5.45,3.09,10.93,5.55,18.79,3,23.48,6.77,8.11,7.87,7.6,12.81Z"/><path class="cls-7" d="M298.25,407.79c12.88,7.49,27.13,12.35,41.9,14.31,3.26,.39,7.05,.45,9.23-2,1.17-1.43,1.71-3.27,1.5-5.11-.39-4.6-4.26-8.24-8.5-10.07s-8.91-2.25-13.42-3.26c-4.49-1.01-8.82-2.6-12.9-4.72-3.24-1.69-6.37-3.74-9.94-4.5s-7.82,.16-9.73,3.28"/><path class="cls-7" d="M348.18,421.35c3.4-1.63,5.83-4.76,6.55-8.46,.65-4.33-1.82-8.69-5.29-11.35s-7.82-3.92-12.11-4.81-8.68-1.49-12.79-3.12c-6.27-2.46-12.46-7.3-19-5.57"/><path class="cls-33" d="M318.45,252.87l-30.29-11.52-.38-.15s.11-.8,.2-2c.19-2.42,.29-6.36-.85-7.69-1.69-2-6.47-.32-11.14-2.46s-13.3,1.69-13.3,1.69c0,0-6.24-1.15-9,3.35-1.4,3.63-.92,9-.92,9l-.57,.2c-3.61,1.35-23.25,8.74-27.4,11.71-4.59,3.25-9.67,36.62-11.3,46.42s-4.53,18.63-3.06,22,22.57,19.62,34.71,23.81,55.19,3,55.19,3c0,0,.7-.19,1.95-.59,7.28-2.34,33.11-12,46.82-34.68,.02,.04-13.26-43.49-30.66-62.09Zm-81.84,56.13c-2.23,1.58-1,7.7-1,7.7l-3.79-3.34,9.52-23.41,4.06,18s-6.56-.52-8.79,1.05Zm76.16,14.87c-1.05,.54,3-10.71,1.08-13.26s-7.71-2.31-7.71-2.31l.49-3.07,3.43-17.6,1.14-1.35s11.78,20.19,13.89,27.31c0,.02-12.84,10.28-12.32,10.28Z"/><path class="cls-28" d="M261.26,179.86l-15.64,16.6s-2.15,1.91-1.3,6.72,2.85,9,4.36,9.28c1.2,.21,2.41,.32,3.62,.32,0,0,3.35,7.26,5.73,10.11,0,0,.82,11.21,.38,14.32,0,0,5.62,4.91,10.91,5.53s13.46-7.48,13.46-7.48l2-9.92s4.8-7.28,5.12-9.22,2.52-1.44,3.6-2.4,3.57-5.23,4-9.27,.44-8.68-4.25-7.32c-4.07-1.09-1.52-9.69-1.52-9.69l-7.15-6.3-23.32-1.28Z"/><path class="cls-29" d="M288.16,241.35c-.24,.62-.51,1.22-.81,1.81-2.58,4.86-13.82,14.13-13.82,14.13l-3.4-10.45-1.86,10.45c-3.75-1.64-15.19-11.55-15.19-11.55,0,0-.39-.93-.86-2.38l.57-.2s-.48-5.41,.92-9c2.74-4.5,9-3.35,9-3.35,0,0,8.63-3.83,13.3-1.69s9.45,.48,11.14,2.46,.65,9.66,.65,9.66l.36,.11Z"/><path class="cls-42" d="M318.45,252.87l-30.29-11.52-.38-.15s.11-.8,.2-2l-.63,3.93-4.48,6.08c4.79,1.76,9.46,3.82,14,6.16,4.44,2.38,6.98,7.23,6.4,12.24l-5.58,47.75-2.29,27.11,6.91,7.17c7.28-2.34,33.11-12,46.82-34.68,0,.04-13.28-43.49-30.68-62.09Zm-5.68,71c-1.05,.54,3-10.71,1.08-13.26s-7.71-2.31-7.71-2.31l.49-3.07,3.43-17.6,1.14-1.35s11.78,20.19,13.89,27.31c0,.02-12.84,10.28-12.32,10.28Z"/><path class="cls-42" d="M247.41,310.61l-4.71-15.74s-8.45-28.81-14.24-35.91l1.52,20.26s-5,24.2-9.57,31.39-5.59,9,0,9,19.2,10.84,19.2,10.84l-1.05-9,8.85-10.84Zm-11.87,6.09l-3.79-3.34,9.52-23.41,4.06,18s-6.52-.49-8.75,1.08-1.04,7.67-1.04,7.67Z"/><path class="cls-7" d="M258.03,222.89s.86,8.49,0,12.37"/><path class="cls-7" d="M283.65,234.12c0-2.73,.32-5.45,.94-8.11"/><path class="cls-7" d="M285.92,186.19s5.14,6.45,4.87,11.33-.65,10.66-.52,16.32-9.09,17.52-13.83,18.57-8.82,1.32-11.85-1.71-6.06-7.24-10-12.64-3-17.25-3-17.25"/><path class="cls-8" d="M273.54,205.32c-.31,1.77-.45,3.57-.4,5.37-.1,1.52,.37,3.02,1.32,4.2,.57,.58,1.39,1.05,1.5,1.85,0,.73-.41,1.41-1.06,1.75-.64,.32-1.26,.69-1.85,1.1"/><path class="cls-8" d="M265.41,220.21s.59,3.83,5.72,4.63"/><path class="cls-22" d="M265.94,208.24c0,1.11-.48,2-1.07,2s-1.07-.89-1.07-2,.48-2,1.07-2,1.07,.9,1.07,2Z"/><path class="cls-22" d="M281.25,208.72c0,1.11-.48,2-1.07,2s-1.07-.9-1.07-2,.48-2,1.07-2,1.07,.89,1.07,2Z"/><path class="cls-14" d="M278.16,203.87s5-5,9.19,.58"/><path class="cls-14" d="M267.63,203.97s-3.16-3.54-8.14,0"/><path class="cls-43" d="M258.41,227.61s3.05,8.4,9.86,10.79,15.85-10,15.85-10l-.47-1.61s-5.93,7.7-12.52,6.39-13.1-10.25-13.1-10.25l.38,4.68Z"/><path class="cls-8" d="M252.3,212.46s-4.06,1.43-5.14-1.73-4.78-11.49-1.54-14.27,5.84,3.67,5.84,3.67"/><path class="cls-8" d="M290.26,214.18s3.77,.76,4.85-2.4,4.78-11.49,1.54-14.27-5.84,3.67-5.84,3.67"/><path class="cls-43" d="M251.46,208.24c1.41-.22,2.68-.97,3.56-2.1,.54-.99,.88-2.07,1-3.19,.37-2.13,.56-4.28,.56-6.44-.04-.84,.03-1.69,.23-2.51,.3-.83,.76-1.58,1.36-2.23,1.41-1.66,3.12-3.06,4.47-4.78,1.46-1.64,2.19-3.81,2-6,6.26,5.16,14.49,7.29,22.47,5.81,7.15-1.4,14-7.67,13.17-15.55-.32-2.71-2.33-4.91-5-5.48-3.53-.88-6.7,1-9.9,2.21-5.83,2.2-11.54-1.58-17.43-2.21-5-.55-11.23,.08-13.85,5.09,0,0-9,1.06-13,8.5s3.57,17.73,3.57,17.73c0,0,3-3.68,6.93,3.76l-.14,7.39Z"/><path class="cls-43" d="M286.54,184.29s-2.34,12.2,3.77,18.11c0,0,1.34-3.67,2.69-4.57,1.98-4.4,1.57-9.51-1.07-13.54-4.52-7.1-5.39,0-5.39,0Z"/><path class="cls-11" d="M297.68,170.41c-1.09,3.37-3.67,6.06-7,7.27-8.48,3.46-16.71-.37-25.21-1.12-6.93-.62-14.58,5.64-15.07,12.76"/><path class="cls-11" d="M245.17,187.44c.21-5.74,3.72-10.83,9-13.08"/><path class="cls-7" d="M256.07,234.12c3.73,3.89,8.23,6.95,13.21,9,0,0,10.15-2.95,15.31-10"/><circle class="cls-3" cx="262.7" cy="208.22" r="8.98"/><circle class="cls-6" cx="282.75" cy="208.26" r="8.98"/><path class="cls-7" d="M258.03,230.77c-1.84,.48-3.4,1.69-4.33,3.35-1.59,2.8-.63,11.61-.63,11.61,0,0,8.21,8.12,15.2,11.55l2.06-11.59,3.2,11.59s10.82-7.65,13.82-14.12c0,0,1-7.55,0-10-.47-1.39-1.76-2.34-3.23-2.37"/><path class="cls-7" d="M245.17,308.31s-3.21-21.5-7.48-30.27"/><path class="cls-7" d="M228.46,258.96c2.49,3.53,4.71,7.25,6.64,11.11"/><path class="cls-7" d="M312.77,275.01c.86-3.59,2.04-7.11,3.53-10.49"/><path class="cls-7" d="M306.14,308.31s2.31-14.74,5.07-26.88"/><path class="cls-7" d="M310.06,287.61c2.23-2.96,5.37-5.11,8.94-6.12"/><path class="cls-7" d="M287.79,241.2s18.63,7.45,30.66,11.68c0,0,14.8,13.91,30.67,62.12,0,0-14.54,24.46-42.2,32.3"/><path class="cls-7" d="M311.72,324.74l13.37-11.13s7.07-5.37,14.42-1.7"/><path class="cls-7" d="M311.21,286.28s11.05,16.33,13.88,27.33"/><path class="cls-7" d="M235.69,317.32l-3.91-3.71s-5.8-1-12.38,3.39"/><path class="cls-7" d="M231.78,313.61s4.86-16,9.65-24.19"/><path class="cls-7" d="M252.79,243.16s-26.81,10.06-29.44,13-12.62,59.19-12.89,65.63c-.23,5.76,20.65,18.69,31,24.14"/><path class="cls-36" d="M272.84,262.17c0,.98-.79,1.77-1.77,1.77s-1.77-.79-1.77-1.77,.79-1.77,1.77-1.77h0c.97,0,1.76,.78,1.77,1.75,0,0,0,.01,0,.02Z"/><path class="cls-36" d="M303.86,356.39h-61c-.79,0-1.43-.64-1.43-1.43h0c0-.79,.64-1.43,1.43-1.43h61c.79,0,1.43,.64,1.43,1.43h0c0,.79-.64,1.43-1.43,1.43Z"/><path class="cls-17" d="M306,351.61l8.17-38.4c.47-2.2-.94-4.37-3.14-4.84-.28-.06-.57-.09-.86-.09h-71.3c-2.25,0-4.08,1.83-4.08,4.08,0,.27,.03,.54,.08,.8l7.33,37.12c.37,1.88,2,3.25,3.91,3.29l55.79,1.28c1.97,.04,3.69-1.32,4.1-3.24Z"/><path class="cls-43" d="M279.98,330.44c0,3.14-2.56,5.69-5.7,5.68-3.14,0-5.69-2.56-5.68-5.7,0-3.14,2.55-5.68,5.69-5.68s5.69,2.55,5.69,5.69h0Z"/><line class="cls-7" x1="291.17" y1="311.95" x2="299.64" y2="311.95"/><line class="cls-7" x1="250.72" y1="311.95" x2="282.87" y2="311.95"/><path class="cls-1" d="M306.14,392.38l-6.5,17.06s-16.58-4.18-37.81-8.53c-22.21-4.55-45.4-10.44-57.43-31.55-1.46-2.57-2.44-5.61-1.75-8.49,1.73-7.29,11.22-9.27,17.47-10,3.93-.43,7.88-.65,11.83-.66,2,0,8.65-1.09,10.26,.1,2.42,1.76,5,3.3,7.71,4.57,3.55,1.51,55.37-1.35,55.37-1.35,.9-1.97,1.45-4.07,1.63-6.23,8.15-4.14,27-7.64,35-6.09,12.53,2.43,19.84,9.74,18.45,17.4s-29.07,28.2-54.23,33.77Z"/><path class="cls-15" d="M306.14,392.38s-15.77-4.18-28.65-12.88-22.94-18.8-40.89-16.71"/><path class="cls-15" d="M274.54,377.45c8.14-2.34,14.11-7.61,20.64-12.66,6.89-5.53,14.28-10.39,22.09-14.52"/><line class="cls-7" x1="271.67" y1="209.66" x2="274.06" y2="209.66"/></g></svg>