<?xml version="1.0" encoding="UTF-8"?><svg id="Layer_1" xmlns="http://www.w3.org/2000/svg" viewBox="0 0 439.08 429.77"><defs><style>.cls-1{stroke-width:1.1px;}.cls-1,.cls-2,.cls-3,.cls-4,.cls-5,.cls-6,.cls-7,.cls-8,.cls-9{stroke:#333;}.cls-1,.cls-3,.cls-10,.cls-4,.cls-11,.cls-12,.cls-13,.cls-5,.cls-14,.cls-7,.cls-15,.cls-9{stroke-linecap:round;stroke-linejoin:round;}.cls-1,.cls-3,.cls-10,.cls-4,.cls-12,.cls-5,.cls-14,.cls-7,.cls-15,.cls-16{fill:none;}.cls-17,.cls-11,.cls-18{fill:#fff;}.cls-2,.cls-19,.cls-6,.cls-8,.cls-16{stroke-miterlimit:10;}.cls-2,.cls-20{fill:#263238;}.cls-19{stroke:#222221;}.cls-19,.cls-10,.cls-4,.cls-11,.cls-12,.cls-13,.cls-14,.cls-6,.cls-7,.cls-15,.cls-8,.cls-16,.cls-9{stroke-width:1.1px;}.cls-19,.cls-13,.cls-21,.cls-9{fill:#efefef;}.cls-3{stroke-width:1.1px;}.cls-10,.cls-11,.cls-13,.cls-16{stroke:#263238;}.cls-22,.cls-18{opacity:.5;}.cls-22,.cls-18,.cls-12,.cls-23,.cls-24,.cls-25{isolation:isolate;}.cls-22,.cls-24,.cls-26{fill:#e5e5e5;}.cls-27{fill:#777;}.cls-12,.cls-14{stroke:#fff;}.cls-12,.cls-23{opacity:.2;}.cls-28{fill:#333;}.cls-29,.cls-6{fill:#444;}.cls-5{stroke-width:2.21px;}.cls-24{opacity:.7;}.cls-30,.cls-25{fill:#aaa;}.cls-7,.cls-15{stroke-dasharray:0 4.41;}.cls-15{stroke:#444;}.cls-8{fill:#999;}.cls-31{fill:#888;}</style></defs><g id="freepik--background-simple--inject-75"><path class="cls-26" d="M426.09,166.72c-48.74-83.48-180.95-53.75-207.95-94.35-13.83-20.76-29.3-44.89-51.74-57.42C145.01,2.95,120.21-1.26,98.59,.32,21.38,5.97-11.35,75.05,3.48,150.91c19.8,101.19,109.5,204.56,216.06,205.28,55.74,.42,109-19.58,150.7-47.71l.93-.63c41.7-28.39,92.14-77.4,54.92-141.13Z"/><path class="cls-24" d="M426.09,166.72c-48.74-83.48-180.95-53.75-207.95-94.35-13.83-20.76-29.3-44.89-51.74-57.42C145.01,2.95,120.21-1.26,98.59,.32,21.38,5.97-11.35,75.05,3.48,150.91c19.8,101.19,109.5,204.56,216.06,205.28,55.74,.42,109-19.58,150.7-47.71l.93-.63c41.7-28.39,92.14-77.4,54.92-141.13Z"/></g><g id="freepik--Lines--inject-75"><path class="cls-7" d="M47.73,172.79h-5.42c-12.11,0-21.93,9.82-21.93,21.93v120.34c0,12.11,9.82,21.93,21.93,21.93H116.67c12.11,0,21.93-9.82,21.93-21.93h0"/><path class="cls-7" d="M132.54,59.24v-23.77c0-7.41,5.99-13.41,13.4-13.43h96.7c7.42,0,13.43,6.01,13.43,13.43h0"/></g><g id="freepik--Shadow--inject-75"><ellipse class="cls-26" cx="219.54" cy="403.01" rx="191.52" ry="26.76"/><ellipse class="cls-22" cx="219.54" cy="403.01" rx="191.52" ry="26.76"/></g><g id="freepik--Window--inject-75"><path class="cls-9" d="M400.08,91.13v180.06c0,12.26-9.93,22.19-22.19,22.2H61.19c-12.26,0-22.19-9.94-22.19-22.2V91.13c0-.53,0-1,.07-1.56,.81-11.62,10.47-20.64,22.12-20.64H377.89c11.66,0,21.33,9.04,22.12,20.68,.05,.48,.07,1,.07,1.52Z"/><path class="cls-20" d="M49.8,97.89H390.41v166.33c0,11.49-9.31,20.8-20.8,20.8H70.61c-11.49,0-20.8-9.31-20.8-20.8V97.89h-.01Z"/><path class="cls-25" d="M390.42,97.89v166.33c.06,11.42-9.15,20.73-20.57,20.8H70.37c-11.42-.07-20.63-9.38-20.57-20.8V97.89H390.42Z"/><path class="cls-6" d="M400.01,89.61H39.07c.81-11.62,10.47-20.64,22.12-20.64H377.89c11.65,0,21.31,9.02,22.12,20.64Z"/><path class="cls-21" d="M83.42,79.25c0,2.17-1.76,3.93-3.93,3.93s-3.93-1.76-3.93-3.93,1.76-3.93,3.93-3.93,3.93,1.76,3.93,3.93h0Z"/><path class="cls-21" d="M100.04,79.25c0,2.17-1.76,3.93-3.93,3.93s-3.93-1.76-3.93-3.93,1.76-3.93,3.93-3.93,3.93,1.76,3.93,3.93h0Z"/><circle class="cls-21" cx="112.73" cy="79.25" r="3.93"/><path class="cls-16" d="M390.41,97.89v166.33c0,11.49-9.31,20.8-20.8,20.8H70.61c-9.93,0-18.47-7.02-20.4-16.76v-.06c-.25-1.32-.38-2.66-.38-4V97.89H390.41Z"/><path class="cls-29" d="M390.09,123.61c-1.46-.82-3.01-1.46-4.62-1.91l-1.87-8.35h-7.94l-1.85,8.35c-1.62,.44-3.18,1.08-4.64,1.91l-7.17-4.59-5.61,5.59,4.51,7.17c-.83,1.46-1.47,3.02-1.91,4.64l-8.35,1.85v7.94l8.35,1.87c.44,1.63,1.08,3.19,1.91,4.66l-4.59,7.22,5.62,5.61,7.21-4.59c1.46,.83,3.01,1.47,4.63,1.92l1.86,8.34h7.91l1.86-8.34c1.61-.45,3.16-1.1,4.62-1.92l.37,.24v-37.81l-.3,.2Zm-10.44,29c-5.67,0-10.26-4.59-10.26-10.26s4.59-10.26,10.26-10.26c5.67,0,10.26,4.59,10.26,10.26h0c0,5.67-4.59,10.26-10.25,10.26h-.01Z"/><path class="cls-29" d="M246.99,131.66v-16.74l-17.6-3.91c-.95-3.4-2.29-6.68-4-9.77l2.13-3.35h-83.1l2.05,3.26c-1.73,3.08-3.07,6.35-4,9.76l-17.61,3.92v16.78l17.61,3.93c.93,3.43,2.27,6.74,4,9.84l-9.67,15.21,11.85,11.84,15.2-9.68c3.08,1.73,6.36,3.09,9.77,4.05l3.92,17.55h16.7l3.94-17.59c3.4-.96,6.66-2.32,9.74-4.05l15.21,9.68,11.84-11.84-9.61-15.21c1.7-3.09,3.05-6.36,4-9.75l17.63-3.93Zm-61,13.26c-11.95,0-21.63-9.68-21.63-21.63s9.68-21.63,21.63-21.63,21.63,9.68,21.63,21.63c0,11.94-9.67,21.62-21.61,21.63h-.02Z"/><path class="cls-29" d="M135.92,246.61l.71-13.29-13.77-3.88c-.64-2.73-1.59-5.38-2.82-7.9l8.32-11.68-8.92-9.89-12.46,7c-2.38-1.5-4.93-2.72-7.59-3.63l-2.38-14.12-13.28-.61-3.84,13.81c-2.74,.61-5.39,1.55-7.9,2.8l-11.67-8.31-9.91,8.91,7.06,12.47c-1.51,2.37-2.74,4.92-3.64,7.58l-4,.66v18l2.92,.82c.61,2.74,1.54,5.4,2.79,7.91l-5.74,8.05,.38,6.89v.06l5.93,6.57,12.48-7.05c2.38,1.53,4.93,2.76,7.61,3.67l2.34,13.56h0l.11,.57,13.28,.7,.35-1.27h0l3.49-12.53c2.75-.62,5.41-1.56,7.94-2.8l11.65,8.3,9.9-8.9-7-12.48c1.5-2.37,2.71-4.91,3.59-7.57l14.07-2.42Zm-35.27-20.75c-6.35-7.06-17.23-7.64-24.29-1.29-7.06,6.35-7.64,17.23-1.29,24.29,6.35,7.06,17.23,7.64,24.29,1.29h.01c7.03-6.36,7.6-17.2,1.28-24.25v-.04Z"/><path class="cls-29" d="M242.14,226.8c.51-2.06,.79-4.17,.81-6.29l9.55-5-2.64-9.69-10.78,.5c-1.09-1.81-2.39-3.49-3.87-5l3.19-10.31-8.7-5-7.28,7.94c-2.05-.5-4.16-.76-6.27-.8l-5-9.55-9.68,2.63,.51,10.79c-1.81,1.09-3.49,2.39-5,3.87l-10.32-3.19-5,8.69,8,7.27c-.52,2.05-.78,4.16-.79,6.27l-9.57,5,2.64,9.68,10.8-.51c1.07,1.82,2.36,3.5,3.85,5l-3.21,10.26,8.71,5,7.24-7.88c2.06,.52,4.17,.78,6.29,.79l5,9.56,9.68-2.63-.43-9.22-.07-1.58c1.84-1.08,3.54-2.38,5.06-3.87l10.31,3.2,4.26-7.44,.72-1.26-8.01-7.23Zm-22.87,5.88c-6.92,1.91-14.08-2.15-15.99-9.08-1.91-6.92,2.15-14.08,9.08-15.99,6.92-1.91,14.08,2.15,15.99,9.08,0,.03,.02,.06,.02,.09,1.85,6.9-2.21,14-9.1,15.9h0Z"/><path class="cls-29" d="M352.86,243.84l2.2-13.3-13.46-5.41c-.31-2.83-.95-5.62-1.93-8.3l9.69-10.79-7.84-11-13.36,5.67c-2.22-1.78-4.64-3.28-7.22-4.48l-.78-14.49-13.3-2.2-5.45,13.4c-2.82,.33-5.6,.99-8.27,1.95l-10.82-9.69-10.95,7.84,5.68,13.35c-1.56,1.95-2.92,4.06-4.05,6.29-.15,.31-.31,.62-.45,.93l-14.48,.8-2.21,13.28,2.18,.88,11.28,4.55c.31,2.82,.96,5.59,1.93,8.26l-9.71,10.86,7.85,11,13.35-5.7c2.21,1.79,4.63,3.31,7.21,4.52l.75,14.42,13.29,2.2,5.44-13.3c2.83-.31,5.61-.96,8.28-1.94l10.8,9.69,11-7.85-5.68-13.36c1.81-2.22,3.34-4.66,4.55-7.25l14.48-.83Zm-37.3-.6c-7.81,5.61-18.69,3.82-24.29-4-5.61-7.81-3.82-18.69,4-24.29,7.81-5.61,18.69-3.82,24.29,4,0,0,0,0,0,0,5.6,7.82,3.8,18.69-4.02,24.29h.02Z"/></g><g id="freepik--Graphics--inject-75"><rect class="cls-8" x="54.93" y="145.38" width="130.8" height="171.01" rx="13.11" ry="13.11"/><rect class="cls-23" x="54.93" y="145.38" width="130.8" height="171.01" rx="13.11" ry="13.11"/><path class="cls-13" d="M197.9,171.41v144.79c0,7.24-5.86,13.11-13.1,13.12H80.21c-7.24,0-13.11-5.88-13.1-13.12h0V171.41c0-7.24,5.86-13.1,13.1-13.11h104.58c7.24,0,13.11,5.87,13.11,13.11h0Z"/><path class="cls-6" d="M197.9,171.41v7.75H67.11v-7.75c0-7.24,5.86-13.1,13.1-13.11h104.58c7.24,0,13.11,5.87,13.11,13.11h0Z"/><rect class="cls-30" x="79.41" y="188.14" width="32.18" height="5.4"/><rect class="cls-30" x="79.41" y="236.53" width="32.18" height="5.4"/><rect class="cls-30" x="79.41" y="280.41" width="32.18" height="5.4"/><rect class="cls-29" x="79.41" y="201.51" width="91.39" height="3.96"/><rect class="cls-29" x="79.41" y="209.08" width="74.91" height="3.86"/><rect class="cls-29" x="79.41" y="216.53" width="84.72" height="3.86"/><rect class="cls-29" x="79.41" y="223.97" width="84.72" height="3.86"/><rect class="cls-29" x="79.41" y="245.39" width="91.39" height="3.96"/><rect class="cls-29" x="79.41" y="252.96" width="74.91" height="3.86"/><rect class="cls-29" x="79.41" y="260.41" width="84.72" height="3.86"/><rect class="cls-29" x="79.41" y="293.57" width="91.39" height="3.96"/><rect class="cls-29" x="79.41" y="301.15" width="74.91" height="3.86"/><rect class="cls-29" x="79.41" y="308.6" width="84.72" height="3.86"/><path class="cls-19" d="M345.31,57.9v58.52c0,8.63-7,15.63-15.63,15.63H194.89c-8.63,0-15.63-6.99-15.64-15.62h0V57.9c0-8.64,7-15.63,15.64-15.64h134.78c8.64,0,15.64,7,15.64,15.64Z"/><path class="cls-6" d="M345.31,57.9v1.34H179.25v-1.34c0-8.64,7-15.63,15.64-15.64h134.78c8.64,0,15.64,7,15.64,15.64Z"/><path class="cls-21" d="M203.65,53.55c-.94,.94-2.46,.94-3.39,0-.94-.94-.94-2.46,0-3.39s2.46-.94,3.39,0c0,0,0,0,0,0,.93,.94,.93,2.45,0,3.39Z"/><path class="cls-21" d="M214.77,53.55c-.94,.94-2.46,.94-3.39,0-.94-.94-.94-2.46,0-3.39s2.46-.94,3.39,0c0,0,0,0,0,0,.93,.94,.93,2.45,0,3.39Z"/><path class="cls-21" d="M225.89,53.55c-.94,.94-2.46,.94-3.39,0-.94-.94-.94-2.46,0-3.39s2.46-.94,3.39,0c0,0,0,0,0,0,.93,.94,.93,2.45,0,3.39Z"/><rect class="cls-15" x="189.84" y="70" width="54.28" height="46.92"/><rect class="cls-29" x="252.5" y="70" width="62.47" height="3.3"/><rect class="cls-29" x="252.5" y="76.83" width="47.92" height="3.29"/><rect class="cls-29" x="252.5" y="83.63" width="71.35" height="3.33"/><rect class="cls-29" x="252.5" y="90.26" width="60.76" height="3.33"/><rect class="cls-11" x="312.77" y="203.14" width="43.61" height="30.99" rx="6.53" ry="6.53"/><polyline class="cls-10" points="326.84 212.46 318.45 217.72 326.24 224.62"/><polyline class="cls-10" points="342.12 225.12 349.66 218.7 340.96 213"/><line class="cls-10" x1="330.92" y1="229.08" x2="337.11" y2="209.66"/></g><g id="freepik--Character--inject-75"><path class="cls-31" d="M266.4,398.08s-29,8.31-33.05,9.75c-3.68,1.3-13.66,4.8-21.15,3.71-.72-.1-1.44-.26-2.14-.46-7.59-2.26-11-4.37-12-9.14s2.78-8.29,6.42-10.54,23.38-4.6,23.38-4.6l4.77,1.4h0l33.77,9.88Z"/><path class="cls-17" d="M212.2,411.54c-.72-.1-1.44-.26-2.14-.46-7.59-2.26-11-4.37-12-9.14s2.78-8.29,6.42-10.54,23.38-4.6,23.38-4.6l4.77,1.4c-4.32,2-20.4,3.09-23.91,5.11s-5.2,5.82-3.13,11c1.11,2.7,4.07,5.35,6.61,7.23Z"/><path class="cls-10" d="M262.04,399.26s-21.78,5.64-30.42,9.25-25.11,5.19-31-2.25-.68-13.86,5.19-15.29,17.74-3.68,24.22-2.77"/><path class="cls-10" d="M212.63,411.15s-11.08-6.08-7.4-14.6c2.72-6.28,17.5-4.92,24.82-8.35"/><path class="cls-31" d="M354.73,412.89c-.3,3-1.35,5.81-4.35,7.58-2,1.18-4.84,1.88-8.91,1.84-10.17-.13-29.29-7.4-29.29-7.4l-17.9-9.9,9.31-14.73,2.55-4,6.58,1.48s5.45,3.09,10.93,5.55,18.79,3,23.48,6.77,8.11,7.87,7.6,12.81Z"/><path class="cls-17" d="M354.73,412.89c-.3,3-1.35,5.81-4.35,7.58,.86-2.95,.69-6.11-.5-8.94-2-4.49-8.51-8.45-17.07-9.11s-15.11-4.66-18.54-6.45c-2.68-1.39-8.33-4.43-10.68-5.69l2.55-4,6.58,1.48s5.45,3.09,10.93,5.55,18.79,3,23.48,6.77,8.11,7.87,7.6,12.81Z"/><path class="cls-10" d="M298.25,407.79c12.88,7.49,27.13,12.35,41.9,14.31,3.26,.39,7.05,.45,9.23-2,1.17-1.43,1.71-3.27,1.5-5.11-.39-4.6-4.26-8.24-8.5-10.07s-8.91-2.25-13.42-3.26c-4.49-1.01-8.82-2.6-12.9-4.72-3.24-1.69-6.37-3.74-9.94-4.5s-7.82,.16-9.73,3.28"/><path class="cls-10" d="M348.18,421.35c3.4-1.63,5.83-4.76,6.55-8.46,.65-4.33-1.82-8.69-5.29-11.35s-7.82-3.92-12.11-4.81-8.68-1.49-12.79-3.12c-6.27-2.46-12.46-7.3-19-5.57"/><path class="cls-27" d="M318.45,252.87l-30.29-11.52-.38-.15s.11-.8,.2-2c.19-2.42,.29-6.36-.85-7.69-1.69-2-6.47-.32-11.14-2.46s-13.3,1.69-13.3,1.69c0,0-6.24-1.15-9,3.35-1.4,3.63-.92,9-.92,9l-.57,.2c-3.61,1.35-23.25,8.74-27.4,11.71-4.59,3.25-9.67,36.62-11.3,46.42s-4.53,18.63-3.06,22,22.57,19.62,34.71,23.81,55.19,3,55.19,3c0,0,.7-.19,1.95-.59,7.28-2.34,33.11-12,46.82-34.68,.02,.04-13.26-43.49-30.66-62.09Zm-81.84,56.13c-2.23,1.58-1,7.7-1,7.7l-3.79-3.34,9.52-23.41,4.06,18s-6.56-.52-8.79,1.05Zm76.16,14.87c-1.05,.54,3-10.71,1.08-13.26s-7.71-2.31-7.71-2.31l.49-3.07,3.43-17.6,1.14-1.35s11.78,20.19,13.89,27.31c0,.02-12.84,10.28-12.32,10.28Z"/><path class="cls-17" d="M261.26,179.86l-15.64,16.6s-2.15,1.91-1.3,6.72,2.85,9,4.36,9.28c1.2,.21,2.41,.32,3.62,.32,0,0,3.35,7.26,5.73,10.11,0,0,.82,11.21,.38,14.32,0,0,5.62,4.91,10.91,5.53s13.46-7.48,13.46-7.48l2-9.92s4.8-7.28,5.12-9.22,2.52-1.44,3.6-2.4,3.57-5.23,4-9.27,.44-8.68-4.25-7.32c-4.07-1.09-1.52-9.69-1.52-9.69l-7.15-6.3-23.32-1.28Z"/><path class="cls-18" d="M288.16,241.35c-.24,.62-.51,1.22-.81,1.81-2.58,4.86-13.82,14.13-13.82,14.13l-3.4-10.45-1.86,10.45c-3.75-1.64-15.19-11.55-15.19-11.55,0,0-.39-.93-.86-2.38l.57-.2s-.48-5.41,.92-9c2.74-4.5,9-3.35,9-3.35,0,0,8.63-3.83,13.3-1.69s9.45,.48,11.14,2.46,.65,9.66,.65,9.66l.36,.11Z"/><path class="cls-23" d="M318.45,252.87l-30.29-11.52-.38-.15s.11-.8,.2-2l-.63,3.93-4.48,6.08c4.79,1.76,9.46,3.82,14,6.16,4.44,2.38,6.98,7.23,6.4,12.24l-5.58,47.75-2.29,27.11,6.91,7.17c7.28-2.34,33.11-12,46.82-34.68,0,.04-13.28-43.49-30.68-62.09Zm-5.68,71c-1.05,.54,3-10.71,1.08-13.26s-7.71-2.31-7.71-2.31l.49-3.07,3.43-17.6,1.14-1.35s11.78,20.19,13.89,27.31c0,.02-12.84,10.28-12.32,10.28Z"/><path class="cls-23" d="M247.41,310.61l-4.71-15.74s-8.45-28.81-14.24-35.91l1.52,20.26s-5,24.2-9.57,31.39-5.59,9,0,9,19.2,10.84,19.2,10.84l-1.05-9,8.85-10.84Zm-11.87,6.09l-3.79-3.34,9.52-23.41,4.06,18s-6.52-.49-8.75,1.08-1.04,7.67-1.04,7.67Z"/><path class="cls-10" d="M258.03,222.89s.86,8.49,0,12.37"/><path class="cls-10" d="M283.65,234.12c0-2.73,.32-5.45,.94-8.11"/><path class="cls-10" d="M285.92,186.19s5.14,6.45,4.87,11.33-.65,10.66-.52,16.32-9.09,17.52-13.83,18.57-8.82,1.32-11.85-1.71-6.06-7.24-10-12.64-3-17.25-3-17.25"/><path class="cls-4" d="M273.54,205.32c-.31,1.77-.45,3.57-.4,5.37-.1,1.52,.37,3.02,1.32,4.2,.57,.58,1.39,1.05,1.5,1.85,0,.73-.41,1.41-1.06,1.75-.64,.32-1.26,.69-1.85,1.1"/><path class="cls-4" d="M265.41,220.21s.59,3.83,5.72,4.63"/><path class="cls-2" d="M265.94,208.24c0,1.11-.48,2-1.07,2s-1.07-.89-1.07-2,.48-2,1.07-2,1.07,.9,1.07,2Z"/><path class="cls-2" d="M281.25,208.72c0,1.11-.48,2-1.07,2s-1.07-.9-1.07-2,.48-2,1.07-2,1.07,.89,1.07,2Z"/><path class="cls-5" d="M278.16,203.87s5-5,9.19,.58"/><path class="cls-5" d="M267.63,203.97s-3.16-3.54-8.14,0"/><path class="cls-28" d="M258.41,227.61s3.05,8.4,9.86,10.79,15.85-10,15.85-10l-.47-1.61s-5.93,7.7-12.52,6.39-13.1-10.25-13.1-10.25l.38,4.68Z"/><path class="cls-4" d="M252.3,212.46s-4.06,1.43-5.14-1.73-4.78-11.49-1.54-14.27,5.84,3.67,5.84,3.67"/><path class="cls-4" d="M290.26,214.18s3.77,.76,4.85-2.4,4.78-11.49,1.54-14.27-5.84,3.67-5.84,3.67"/><path class="cls-28" d="M251.46,208.24c1.41-.22,2.68-.97,3.56-2.1,.54-.99,.88-2.07,1-3.19,.37-2.13,.56-4.28,.56-6.44-.04-.84,.03-1.69,.23-2.51,.3-.83,.76-1.58,1.36-2.23,1.41-1.66,3.12-3.06,4.47-4.78,1.46-1.64,2.19-3.81,2-6,6.26,5.16,14.49,7.29,22.47,5.81,7.15-1.4,14-7.67,13.17-15.55-.32-2.71-2.33-4.91-5-5.48-3.53-.88-6.7,1-9.9,2.21-5.83,2.2-11.54-1.58-17.43-2.21-5-.55-11.23,.08-13.85,5.09,0,0-9,1.06-13,8.5s3.57,17.73,3.57,17.73c0,0,3-3.68,6.93,3.76l-.14,7.39Z"/><path class="cls-28" d="M286.54,184.29s-2.34,12.2,3.77,18.11c0,0,1.34-3.67,2.69-4.57,1.98-4.4,1.57-9.51-1.07-13.54-4.52-7.1-5.39,0-5.39,0Z"/><path class="cls-12" d="M297.68,170.41c-1.09,3.37-3.67,6.06-7,7.27-8.48,3.46-16.71-.37-25.21-1.12-6.93-.62-14.58,5.64-15.07,12.76"/><path class="cls-12" d="M245.17,187.44c.21-5.74,3.72-10.83,9-13.08"/><path class="cls-10" d="M256.07,234.12c3.73,3.89,8.23,6.95,13.21,9,0,0,10.15-2.95,15.31-10"/><circle class="cls-1" cx="262.7" cy="208.22" r="8.98"/><circle class="cls-3" cx="282.75" cy="208.26" r="8.98"/><path class="cls-10" d="M258.03,230.77c-1.84,.48-3.4,1.69-4.33,3.35-1.59,2.8-.63,11.61-.63,11.61,0,0,8.21,8.12,15.2,11.55l2.06-11.59,3.2,11.59s10.82-7.65,13.82-14.12c0,0,1-7.55,0-10-.47-1.39-1.76-2.34-3.23-2.37"/><path class="cls-10" d="M245.17,308.31s-3.21-21.5-7.48-30.27"/><path class="cls-10" d="M228.46,258.96c2.49,3.53,4.71,7.25,6.64,11.11"/><path class="cls-10" d="M312.77,275.01c.86-3.59,2.04-7.11,3.53-10.49"/><path class="cls-10" d="M306.14,308.31s2.31-14.74,5.07-26.88"/><path class="cls-10" d="M310.06,287.61c2.23-2.96,5.37-5.11,8.94-6.12"/><path class="cls-10" d="M287.79,241.2s18.63,7.45,30.66,11.68c0,0,14.8,13.91,30.67,62.12,0,0-14.54,24.46-42.2,32.3"/><path class="cls-10" d="M311.72,324.74l13.37-11.13s7.07-5.37,14.42-1.7"/><path class="cls-10" d="M311.21,286.28s11.05,16.33,13.88,27.33"/><path class="cls-10" d="M235.69,317.32l-3.91-3.71s-5.8-1-12.38,3.39"/><path class="cls-10" d="M231.78,313.61s4.86-16,9.65-24.19"/><path class="cls-10" d="M252.79,243.16s-26.81,10.06-29.44,13-12.62,59.19-12.89,65.63c-.23,5.76,20.65,18.69,31,24.14"/><path class="cls-20" d="M272.84,262.17c0,.98-.79,1.77-1.77,1.77s-1.77-.79-1.77-1.77,.79-1.77,1.77-1.77h0c.97,0,1.76,.78,1.77,1.75,0,0,0,.01,0,.02Z"/><path class="cls-20" d="M303.86,356.39h-61c-.79,0-1.43-.64-1.43-1.43h0c0-.79,.64-1.43,1.43-1.43h61c.79,0,1.43,.64,1.43,1.43h0c0,.79-.64,1.43-1.43,1.43Z"/><path class="cls-9" d="M306,351.61l8.17-38.4c.47-2.2-.94-4.37-3.14-4.84-.28-.06-.57-.09-.86-.09h-71.3c-2.25,0-4.08,1.83-4.08,4.08,0,.27,.03,.54,.08,.8l7.33,37.12c.37,1.88,2,3.25,3.91,3.29l55.79,1.28c1.97,.04,3.69-1.32,4.1-3.24Z"/><path class="cls-28" d="M279.98,330.44c0,3.14-2.56,5.69-5.7,5.68-3.14,0-5.69-2.56-5.68-5.7,0-3.14,2.55-5.68,5.69-5.68s5.69,2.55,5.69,5.69h0Z"/><line class="cls-10" x1="291.17" y1="311.95" x2="299.64" y2="311.95"/><line class="cls-10" x1="250.72" y1="311.95" x2="282.87" y2="311.95"/><path class="cls-28" d="M306.14,392.38l-6.5,17.06s-16.58-4.18-37.81-8.53c-22.21-4.55-45.4-10.44-57.43-31.55-1.46-2.57-2.44-5.61-1.75-8.49,1.73-7.29,11.22-9.27,17.47-10,3.93-.43,7.88-.65,11.83-.66,2,0,8.65-1.09,10.26,.1,2.42,1.76,5,3.3,7.71,4.57,3.55,1.51,55.37-1.35,55.37-1.35,.9-1.97,1.45-4.07,1.63-6.23,8.15-4.14,27-7.64,35-6.09,12.53,2.43,19.84,9.74,18.45,17.4s-29.07,28.2-54.23,33.77Z"/><path class="cls-14" d="M306.14,392.38s-15.77-4.18-28.65-12.88-22.94-18.8-40.89-16.71"/><path class="cls-14" d="M274.54,377.45c8.14-2.34,14.11-7.61,20.64-12.66,6.89-5.53,14.28-10.39,22.09-14.52"/><line class="cls-10" x1="271.67" y1="209.66" x2="274.06" y2="209.66"/></g></svg>