<?xml version="1.0" encoding="UTF-8"?><svg id="Layer_1" xmlns="http://www.w3.org/2000/svg" xmlns:xlink="http://www.w3.org/1999/xlink" viewBox="0 0 219.07 159.46"><defs><style>.cls-1{fill:url(#linear-gradient);filter:url(#drop-shadow-2);}.cls-2{filter:url(#drop-shadow-3);}.cls-3{filter:url(#drop-shadow-1);}.cls-3,.cls-4{fill:#eee;}</style><filter id="drop-shadow-1" filterUnits="userSpaceOnUse"><feOffset dx="0" dy="0"/><feGaussianBlur result="blur" stdDeviation="0"/><feFlood flood-color="#333" flood-opacity="0"/><feComposite in2="blur" operator="in"/><feComposite in="SourceGraphic"/></filter><linearGradient id="linear-gradient" x1="146.64" y1="16.3" x2="97.93" y2="120.74" gradientUnits="userSpaceOnUse"><stop offset="0" stop-color="#555"/><stop offset=".05" stop-color="#7b7b7b"/><stop offset=".1" stop-color="#a4a4a4"/><stop offset=".16" stop-color="#c4c4c4"/><stop offset=".21" stop-color="#dbdbdb"/><stop offset=".26" stop-color="#e9e9e9"/><stop offset=".3" stop-color="#eee"/></linearGradient><filter id="drop-shadow-2" filterUnits="userSpaceOnUse"><feOffset dx="0" dy="0"/><feGaussianBlur result="blur-2" stdDeviation="0"/><feFlood flood-color="#333" flood-opacity="0"/><feComposite in2="blur-2" operator="in"/><feComposite in="SourceGraphic"/></filter><filter id="drop-shadow-3" filterUnits="userSpaceOnUse"><feOffset dx="0" dy="0"/><feGaussianBlur result="blur-3" stdDeviation="1"/><feFlood flood-color="#333" flood-opacity=".25"/><feComposite in2="blur-3" operator="in"/><feComposite in="SourceGraphic"/></filter></defs><g><path class="cls-3" d="M167.6,99.78l-24.81-44.72-12.11,2.94,12.11,19.42s-25.11-9.42-51.11,6.58c0,0,38-10,66,16l9.92-.22Z"/><path class="cls-1" d="M135.68,42L111.68,0,53.45,100h10.22c44-64,120-47,120-47-20-11-48-11-48-11Zm-35,4l10-18,9,14.44s-10-.44-19,3.56Z"/></g><g class="cls-2"><path class="cls-4" d="M.85,133.49c-.34,0-.58-.14-.73-.42s-.16-.55-.04-.81l6.47-15.36c.16-.4,.44-.59,.84-.59s.65,.2,.81,.59l6.49,15.38c.13,.28,.11,.55-.05,.81-.17,.26-.41,.4-.72,.4-.18,0-.33-.04-.47-.13-.14-.09-.25-.22-.34-.4l-6.05-14.67h.68l-6.09,14.67c-.07,.18-.18,.31-.32,.4-.14,.09-.3,.13-.47,.13Zm1.45-4.09l.66-1.47H11.89l.66,1.47H2.3Z"/><path class="cls-4" d="M23.13,133.6c-1.14,0-2.17-.26-3.09-.79-.92-.53-1.64-1.25-2.18-2.17-.54-.92-.81-1.95-.83-3.09v-10.38c0-.26,.08-.47,.23-.63,.15-.15,.36-.23,.63-.23,.25,0,.45,.08,.6,.23,.15,.15,.23,.36,.23,.63v6.47c.48-.69,1.13-1.24,1.93-1.66,.8-.42,1.69-.63,2.67-.63,1.13,0,2.14,.27,3.04,.8,.89,.54,1.6,1.26,2.12,2.19,.52,.92,.78,1.97,.78,3.12s-.27,2.22-.8,3.15c-.54,.92-1.27,1.65-2.19,2.19-.92,.54-1.97,.8-3.15,.8Zm0-1.54c.85,0,1.61-.2,2.29-.61s1.21-.95,1.6-1.64c.39-.69,.58-1.47,.58-2.35s-.19-1.65-.58-2.34c-.39-.7-.92-1.24-1.6-1.64-.67-.4-1.44-.59-2.29-.59s-1.59,.2-2.27,.59c-.67,.4-1.2,.94-1.58,1.64-.38,.7-.57,1.48-.57,2.34s.19,1.67,.57,2.35c.38,.69,.91,1.24,1.58,1.64,.67,.4,1.43,.61,2.27,.61Z"/><path class="cls-4" d="M38.07,133.6c-1.16,0-2.2-.27-3.12-.8-.92-.54-1.65-1.26-2.19-2.19-.54-.92-.8-1.97-.8-3.15s.26-2.2,.78-3.12c.52-.92,1.23-1.65,2.12-2.19,.89-.54,1.91-.8,3.04-.8,.98,0,1.87,.21,2.66,.63s1.43,.97,1.91,1.66v-6.47c0-.26,.08-.47,.24-.63,.16-.15,.37-.23,.62-.23s.45,.08,.62,.23c.16,.15,.24,.36,.24,.63v10.38c-.03,1.14-.31,2.17-.85,3.09-.54,.92-1.26,1.64-2.18,2.17-.92,.53-1.95,.79-3.09,.79Zm0-1.54c.85,0,1.61-.2,2.28-.61s1.2-.95,1.58-1.64,.58-1.47,.58-2.35-.19-1.65-.58-2.34c-.39-.7-.92-1.24-1.58-1.64-.67-.4-1.43-.59-2.28-.59s-1.59,.2-2.27,.59c-.67,.4-1.21,.94-1.61,1.64-.4,.7-.59,1.48-.59,2.34s.2,1.67,.59,2.35,.93,1.24,1.61,1.64c.67,.4,1.43,.61,2.27,.61Z"/><path class="cls-4" d="M53.38,133.62c-1.04,0-1.97-.22-2.79-.65s-1.47-1.07-1.95-1.9c-.48-.84-.72-1.86-.72-3.06v-5.72c0-.23,.08-.43,.24-.59,.16-.16,.36-.24,.59-.24,.25,0,.45,.08,.62,.24,.16,.16,.24,.36,.24,.59v5.72c0,.91,.17,1.66,.52,2.24,.34,.59,.81,1.03,1.41,1.32,.59,.29,1.27,.44,2.01,.44s1.37-.14,1.95-.42c.58-.28,1.04-.66,1.38-1.14,.34-.48,.51-1.03,.51-1.65h1.21c-.04,.92-.3,1.75-.76,2.47s-1.08,1.3-1.86,1.72-1.64,.63-2.6,.63Zm4.84-.13c-.25,0-.45-.08-.6-.23-.15-.15-.23-.36-.23-.63v-10.34c0-.25,.08-.45,.23-.6,.15-.15,.36-.23,.6-.23s.45,.08,.62,.23c.16,.15,.24,.36,.24,.6v10.34c0,.26-.08,.47-.24,.63-.16,.15-.37,.23-.62,.23Z"/><path class="cls-4" d="M65.64,133.49c-.59,0-1.11-.16-1.57-.48-.46-.32-.82-.77-1.08-1.34-.26-.57-.38-1.23-.38-1.98v-12.54c0-.25,.08-.45,.23-.61s.36-.23,.6-.23,.45,.08,.6,.23,.23,.36,.23,.61v12.54c0,.63,.13,1.14,.39,1.54,.26,.4,.58,.59,.98,.59h.55c.22,0,.4,.08,.53,.23,.13,.15,.2,.36,.2,.61s-.09,.45-.27,.6c-.18,.15-.42,.23-.72,.23h-.29Z"/><path class="cls-4" d="M71.84,133.49c-.59,0-1.11-.16-1.57-.48-.46-.32-.82-.77-1.08-1.34-.26-.57-.38-1.23-.38-1.98v-12.54c0-.25,.08-.45,.23-.61s.36-.23,.6-.23,.45,.08,.6,.23,.23,.36,.23,.61v12.54c0,.63,.13,1.14,.39,1.54,.26,.4,.58,.59,.98,.59h.55c.22,0,.4,.08,.53,.23,.13,.15,.2,.36,.2,.61s-.09,.45-.27,.6c-.18,.15-.42,.23-.72,.23h-.29Z"/><path class="cls-4" d="M80.09,133.6c-1.13,0-2.14-.27-3.04-.8-.9-.54-1.6-1.26-2.12-2.19-.52-.92-.78-1.97-.78-3.12s.27-2.22,.8-3.15c.54-.92,1.27-1.65,2.19-2.19s1.97-.8,3.12-.8,2.2,.27,3.11,.8,1.64,1.26,2.18,2.19c.54,.92,.81,1.97,.83,3.15l-.68,.53c0,1.06-.25,2-.74,2.85s-1.16,1.51-2,2-1.8,.74-2.87,.74Zm.18-1.54c.85,0,1.61-.2,2.28-.59,.67-.4,1.2-.94,1.58-1.64,.39-.7,.58-1.48,.58-2.34s-.19-1.67-.58-2.35c-.39-.69-.92-1.24-1.58-1.64s-1.43-.6-2.28-.6-1.59,.2-2.27,.6c-.67,.4-1.21,.95-1.61,1.64-.4,.69-.59,1.47-.59,2.35s.2,1.65,.59,2.34c.4,.7,.93,1.24,1.61,1.64,.67,.4,1.43,.59,2.27,.59Zm5.26,1.43c-.25,0-.45-.08-.62-.23-.16-.15-.24-.36-.24-.6v-3.76l.42-1.74,1.3,.33v5.17c0,.25-.08,.45-.24,.6-.16,.15-.37,.23-.62,.23Z"/><path class="cls-4" d="M90.54,128.58c-.26,0-.47-.08-.63-.24-.15-.16-.23-.37-.23-.62v-10.56c0-.26,.08-.47,.23-.63,.15-.15,.36-.23,.63-.23,.25,0,.45,.08,.6,.23,.15,.15,.23,.36,.23,.63v10.56c0,.25-.08,.45-.23,.62-.15,.16-.36,.24-.6,.24Zm0,4.91c-.26,0-.47-.08-.63-.23-.15-.15-.23-.36-.23-.6v-10.34c0-.26,.08-.47,.23-.63,.15-.15,.36-.23,.63-.23,.25,0,.45,.08,.6,.23,.15,.15,.23,.36,.23,.63v10.34c0,.25-.08,.45-.23,.6-.15,.15-.36,.23-.6,.23Zm9.46,0c-.25,0-.45-.08-.62-.24-.16-.16-.24-.36-.24-.59v-5.72c0-.91-.17-1.66-.52-2.24s-.81-1.03-1.41-1.32c-.59-.29-1.27-.44-2.01-.44s-1.37,.14-1.95,.42c-.58,.28-1.04,.66-1.38,1.14-.34,.48-.51,1.03-.51,1.65h-1.21c.03-.92,.28-1.75,.75-2.48,.47-.73,1.09-1.3,1.87-1.72,.78-.42,1.64-.63,2.6-.63,1.04,0,1.97,.22,2.79,.65,.82,.43,1.47,1.07,1.95,1.9s.71,1.86,.71,3.06v5.72c0,.23-.08,.43-.24,.59-.16,.16-.36,.24-.59,.24Z"/><path class="cls-4" d="M110.3,133.49c-.34,0-.58-.14-.73-.42s-.16-.55-.04-.81l6.47-15.36c.16-.4,.44-.59,.84-.59s.65,.2,.81,.59l6.49,15.38c.13,.28,.11,.55-.05,.81-.17,.26-.41,.4-.71,.4-.18,0-.33-.04-.47-.13-.14-.09-.25-.22-.34-.4l-6.05-14.67h.68l-6.09,14.67c-.07,.18-.18,.31-.32,.4-.14,.09-.3,.13-.47,.13Zm1.45-4.09l.66-1.47h8.93l.66,1.47h-10.25Z"/><path class="cls-4" d="M129.09,133.49c-.59,0-1.11-.16-1.57-.48-.46-.32-.82-.77-1.08-1.34s-.38-1.23-.38-1.98v-12.54c0-.25,.08-.45,.23-.61,.15-.15,.35-.23,.6-.23s.45,.08,.61,.23c.15,.15,.23,.36,.23,.61v12.54c0,.63,.13,1.14,.38,1.54,.26,.4,.58,.59,.98,.59h.55c.22,0,.4,.08,.53,.23,.13,.15,.2,.36,.2,.61s-.09,.45-.27,.6c-.18,.15-.42,.23-.71,.23h-.29Z"/><path class="cls-4" d="M143.43,138.64c-.25,0-.46-.08-.62-.23s-.24-.36-.24-.63v-6.47c-.48,.69-1.12,1.24-1.91,1.66s-1.68,.63-2.66,.63c-1.13,0-2.14-.27-3.04-.8-.89-.54-1.6-1.26-2.12-2.19s-.78-1.97-.78-3.12,.27-2.22,.8-3.15c.54-.92,1.27-1.65,2.19-2.19s1.96-.8,3.12-.8,2.17,.26,3.09,.79c.92,.53,1.64,1.25,2.18,2.17,.54,.92,.82,1.95,.85,3.09v10.38c0,.26-.08,.47-.24,.63s-.37,.23-.62,.23Zm-5.26-6.58c.85,0,1.61-.2,2.28-.59,.67-.4,1.2-.94,1.58-1.64,.39-.7,.58-1.48,.58-2.34s-.2-1.67-.58-2.35c-.39-.69-.92-1.24-1.58-1.64-.67-.4-1.43-.6-2.28-.6s-1.59,.2-2.27,.6c-.67,.4-1.21,.95-1.61,1.64-.4,.69-.59,1.47-.59,2.35s.2,1.65,.59,2.34c.4,.7,.93,1.24,1.61,1.64,.67,.4,1.43,.59,2.27,.59Z"/><path class="cls-4" d="M153.55,133.6c-1.13,0-2.14-.27-3.04-.8-.89-.54-1.6-1.26-2.12-2.19s-.78-1.97-.78-3.12,.27-2.22,.8-3.15c.54-.92,1.27-1.65,2.19-2.19s1.96-.8,3.12-.8,2.2,.27,3.11,.8c.92,.54,1.64,1.26,2.18,2.19,.54,.92,.81,1.97,.83,3.15l-.68,.53c0,1.06-.25,2-.74,2.85-.49,.84-1.16,1.51-2,2-.84,.49-1.8,.74-2.87,.74Zm.18-1.54c.85,0,1.61-.2,2.28-.59,.67-.4,1.2-.94,1.58-1.64,.39-.7,.58-1.48,.58-2.34s-.2-1.67-.58-2.35c-.39-.69-.92-1.24-1.58-1.64-.67-.4-1.43-.6-2.28-.6s-1.59,.2-2.27,.6c-.67,.4-1.21,.95-1.61,1.64-.4,.69-.59,1.47-.59,2.35s.2,1.65,.59,2.34c.4,.7,.93,1.24,1.61,1.64,.67,.4,1.43,.59,2.27,.59Zm5.26,1.43c-.25,0-.46-.08-.62-.23-.16-.15-.24-.36-.24-.6v-3.76l.42-1.74,1.3,.33v5.17c0,.25-.08,.45-.24,.6-.16,.15-.37,.23-.62,.23Z"/><path class="cls-4" d="M164,128.58c-.26,0-.47-.08-.63-.24-.15-.16-.23-.37-.23-.62v-10.56c0-.26,.08-.47,.23-.63s.36-.23,.63-.23c.25,0,.45,.08,.61,.23,.15,.15,.23,.36,.23,.63v10.56c0,.25-.08,.45-.23,.62-.15,.16-.36,.24-.61,.24Zm0,4.91c-.26,0-.47-.08-.63-.23-.15-.15-.23-.36-.23-.6v-10.34c0-.26,.08-.47,.23-.63,.15-.15,.36-.23,.63-.23,.25,0,.45,.08,.61,.23s.23,.36,.23,.63v10.34c0,.25-.08,.45-.23,.6s-.36,.23-.61,.23Zm9.46,0c-.25,0-.46-.08-.62-.24-.16-.16-.24-.36-.24-.59v-5.72c0-.91-.17-1.66-.52-2.24s-.81-1.03-1.41-1.32c-.59-.29-1.26-.44-2.01-.44s-1.37,.14-1.95,.42c-.58,.28-1.04,.66-1.38,1.14-.34,.48-.51,1.03-.51,1.65h-1.21c.03-.92,.28-1.75,.75-2.48,.47-.73,1.09-1.3,1.87-1.72s1.64-.63,2.6-.63c1.04,0,1.97,.22,2.79,.65s1.47,1.07,1.95,1.9,.71,1.86,.71,3.06v5.72c0,.23-.08,.43-.24,.59-.16,.16-.36,.24-.59,.24Z"/><path class="cls-4" d="M177.27,123.37c-.22,0-.4-.07-.55-.21-.15-.14-.22-.31-.22-.52,0-.22,.07-.4,.22-.54s.33-.21,.55-.21h5.61c.22,0,.4,.07,.55,.21s.22,.32,.22,.54c0,.21-.07,.38-.22,.52-.15,.14-.33,.21-.55,.21h-5.61Zm5.48,10.12c-.78,0-1.47-.18-2.08-.55-.61-.37-1.09-.87-1.44-1.51-.35-.64-.53-1.37-.53-2.19v-10.76c0-.25,.08-.45,.23-.62,.15-.16,.36-.24,.6-.24s.46,.08,.62,.24c.16,.16,.24,.37,.24,.62v10.76c0,.75,.22,1.36,.66,1.84,.44,.48,1,.71,1.69,.71h.59c.23,0,.42,.08,.57,.24,.15,.16,.22,.37,.22,.62s-.09,.45-.26,.6c-.18,.15-.4,.23-.66,.23h-.46Z"/><path class="cls-4" d="M192.18,133.6c-1.13,0-2.14-.27-3.04-.8-.89-.54-1.6-1.26-2.12-2.19s-.78-1.97-.78-3.12,.27-2.22,.8-3.15c.54-.92,1.27-1.65,2.19-2.19s1.96-.8,3.12-.8,2.2,.27,3.11,.8c.92,.54,1.64,1.26,2.18,2.19,.54,.92,.81,1.97,.83,3.15l-.68,.53c0,1.06-.25,2-.74,2.85-.49,.84-1.16,1.51-2,2-.84,.49-1.8,.74-2.87,.74Zm.18-1.54c.85,0,1.61-.2,2.28-.59,.67-.4,1.2-.94,1.58-1.64,.39-.7,.58-1.48,.58-2.34s-.2-1.67-.58-2.35c-.39-.69-.92-1.24-1.58-1.64-.67-.4-1.43-.6-2.28-.6s-1.59,.2-2.27,.6c-.67,.4-1.21,.95-1.61,1.64-.4,.69-.59,1.47-.59,2.35s.2,1.65,.59,2.34c.4,.7,.93,1.24,1.61,1.64,.67,.4,1.43,.59,2.27,.59Zm5.26,1.43c-.25,0-.46-.08-.62-.23-.16-.15-.24-.36-.24-.6v-3.76l.42-1.74,1.3,.33v5.17c0,.25-.08,.45-.24,.6-.16,.15-.37,.23-.62,.23Z"/><path class="cls-4" d="M202.63,133.49c-.26,0-.47-.08-.63-.23-.15-.15-.23-.36-.23-.6v-10.34c0-.26,.08-.47,.23-.63,.15-.15,.36-.23,.63-.23,.25,0,.45,.08,.61,.23s.23,.36,.23,.63v10.34c0,.25-.08,.45-.23,.6s-.36,.23-.61,.23Zm9.46,0c-.25,0-.46-.08-.62-.24-.16-.16-.24-.36-.24-.59v-5.72c0-.91-.17-1.66-.52-2.24s-.81-1.03-1.41-1.32c-.59-.29-1.26-.44-2.01-.44s-1.37,.14-1.95,.42c-.58,.28-1.04,.66-1.38,1.14-.34,.48-.51,1.03-.51,1.65h-1.21c.03-.92,.28-1.75,.75-2.48,.47-.73,1.09-1.3,1.87-1.72s1.64-.63,2.6-.63c1.04,0,1.97,.22,2.79,.65s1.47,1.07,1.95,1.9,.71,1.86,.71,3.06v5.72c0,.23-.08,.43-.24,.59-.16,.16-.36,.24-.59,.24Z"/><path class="cls-4" d="M217.86,119.17c-.32,0-.6-.12-.84-.35s-.35-.52-.35-.86c0-.37,.12-.66,.36-.87,.24-.21,.52-.32,.85-.32s.58,.11,.82,.32c.24,.21,.36,.5,.36,.87,0,.34-.12,.62-.35,.86-.24,.23-.52,.35-.86,.35Zm.02,14.32c-.26,0-.47-.08-.63-.23-.15-.15-.23-.36-.23-.63v-10.32c0-.26,.08-.47,.23-.63,.15-.15,.36-.23,.63-.23,.25,0,.45,.08,.6,.23,.15,.15,.23,.36,.23,.63v10.32c0,.26-.08,.47-.23,.63-.15,.15-.36,.23-.6,.23Z"/><path class="cls-4" d="M20.02,155.49c-.18,0-.34-.07-.47-.2s-.2-.29-.2-.47v-11.95c0-.19,.06-.35,.19-.48,.12-.12,.28-.19,.48-.19h7.97c.19,0,.35,.06,.48,.18,.12,.12,.19,.28,.19,.47,0,.17-.06,.32-.19,.44-.12,.12-.28,.19-.48,.19h-7.31v4.69h5.32c.19,0,.35,.06,.48,.19,.12,.12,.19,.28,.19,.46s-.06,.33-.19,.46c-.12,.12-.28,.19-.48,.19h-5.32v5.35c0,.18-.06,.34-.19,.47-.12,.13-.28,.2-.48,.2Z"/><path class="cls-4" d="M31.51,155.49c-.2,0-.36-.06-.48-.17-.11-.11-.17-.27-.17-.48v-8.01c0-.2,.06-.36,.17-.48,.11-.11,.27-.17,.48-.17s.36,.06,.48,.17,.17,.27,.17,.48v8.01c0,.2-.06,.36-.17,.48s-.27,.17-.48,.17Zm-.1-5.73c.03-.7,.22-1.33,.55-1.89,.33-.55,.77-.99,1.31-1.31,.54-.32,1.14-.48,1.79-.48,.52,0,.92,.07,1.21,.22,.28,.15,.39,.36,.32,.65-.05,.17-.12,.28-.23,.34-.11,.06-.24,.08-.39,.07-.15-.01-.33-.02-.52-.03-.63-.06-1.2,0-1.69,.2-.49,.19-.88,.47-1.17,.86-.29,.39-.43,.84-.43,1.38h-.75Z"/><path class="cls-4" d="M42.2,155.57c-.91,0-1.72-.2-2.43-.61-.71-.41-1.27-.97-1.68-1.68-.41-.71-.61-1.52-.61-2.43s.2-1.73,.61-2.45c.41-.71,.97-1.28,1.68-1.68,.71-.41,1.52-.61,2.43-.61s1.71,.2,2.42,.61c.71,.41,1.27,.97,1.67,1.68,.41,.71,.62,1.53,.63,2.45,0,.91-.21,1.72-.62,2.43-.41,.71-.98,1.28-1.68,1.68-.71,.41-1.52,.61-2.42,.61Zm0-1.19c.66,0,1.25-.15,1.77-.46,.52-.31,.93-.72,1.22-1.26,.29-.53,.44-1.14,.44-1.82s-.15-1.29-.44-1.83c-.29-.54-.7-.96-1.22-1.27-.52-.31-1.11-.46-1.77-.46s-1.25,.15-1.77,.46c-.52,.31-.93,.73-1.23,1.27-.3,.54-.45,1.15-.45,1.83s.15,1.29,.45,1.82c.3,.53,.71,.95,1.23,1.26,.52,.31,1.11,.46,1.77,.46Z"/><path class="cls-4" d="M50.14,155.49c-.2,0-.37-.06-.48-.18s-.18-.27-.18-.47v-7.99c0-.2,.06-.37,.18-.48,.12-.12,.28-.18,.48-.18,.19,0,.35,.06,.47,.18,.12,.12,.18,.28,.18,.48v7.99c0,.19-.06,.35-.18,.47-.12,.12-.27,.18-.47,.18Zm7.31,0c-.19,0-.35-.06-.48-.19-.12-.12-.19-.28-.19-.46v-4.42c0-.7-.13-1.28-.4-1.73s-.63-.79-1.09-1.02c-.46-.23-.98-.34-1.56-.34s-1.06,.11-1.5,.32c-.45,.22-.8,.51-1.06,.88s-.39,.8-.39,1.28h-.94c.02-.71,.22-1.35,.58-1.91,.36-.56,.84-1,1.44-1.33,.6-.32,1.27-.49,2.01-.49,.8,0,1.52,.17,2.16,.5s1.14,.82,1.5,1.47c.37,.65,.55,1.43,.55,2.36v4.42c0,.18-.06,.33-.19,.46-.12,.12-.28,.19-.46,.19Z"/><path class="cls-4" d="M60.39,147.67c-.17,0-.31-.05-.43-.16s-.17-.24-.17-.4c0-.17,.06-.31,.17-.42,.11-.11,.26-.16,.43-.16h4.33c.17,0,.31,.05,.42,.16,.11,.11,.17,.25,.17,.42,0,.16-.06,.29-.17,.4s-.25,.16-.42,.16h-4.33Zm4.23,7.82c-.6,0-1.14-.14-1.61-.42s-.84-.67-1.11-1.17c-.27-.49-.41-1.06-.41-1.69v-8.31c0-.19,.06-.35,.18-.48,.12-.12,.27-.19,.47-.19s.35,.06,.48,.19c.12,.12,.19,.28,.19,.48v8.31c0,.58,.17,1.05,.51,1.42,.34,.37,.78,.55,1.31,.55h.46c.18,0,.33,.06,.44,.19,.11,.12,.17,.28,.17,.48s-.07,.35-.2,.47c-.14,.12-.31,.18-.51,.18h-.36Z"/><path class="cls-4" d="M67.58,151.49c-.18,0-.33-.06-.46-.19-.12-.12-.19-.28-.19-.46,0-.19,.06-.35,.19-.48,.12-.12,.28-.19,.46-.19h4c.19,0,.35,.06,.48,.19,.12,.12,.19,.28,.19,.48,0,.18-.06,.33-.19,.46-.12,.12-.28,.19-.48,.19h-4Z"/><path class="cls-4" d="M75.3,155.49c-.19,0-.35-.06-.48-.19-.12-.12-.19-.28-.19-.48v-11.95c0-.19,.06-.35,.19-.48,.12-.12,.28-.19,.48-.19h7.97c.18,0,.34,.06,.47,.18,.13,.12,.2,.28,.2,.47,0,.17-.07,.32-.2,.44-.13,.12-.29,.19-.47,.19h-7.31v4.69h5.32c.19,0,.35,.06,.48,.19,.12,.12,.19,.28,.19,.46s-.06,.33-.19,.46c-.12,.12-.28,.19-.48,.19h-5.32v4.74h7.31c.18,0,.34,.06,.47,.19,.13,.12,.2,.27,.2,.44,0,.19-.07,.35-.2,.47-.13,.12-.29,.18-.47,.18h-7.97Z"/><path class="cls-4" d="M86.89,155.49c-.2,0-.37-.06-.48-.18s-.18-.27-.18-.47v-7.99c0-.2,.06-.37,.18-.48,.12-.12,.28-.18,.48-.18,.19,0,.35,.06,.47,.18,.12,.12,.18,.28,.18,.48v7.99c0,.19-.06,.35-.18,.47-.12,.12-.27,.18-.47,.18Zm7.31,0c-.19,0-.35-.06-.48-.19-.12-.12-.19-.28-.19-.46v-4.42c0-.7-.13-1.28-.4-1.73s-.63-.79-1.09-1.02c-.46-.23-.98-.34-1.56-.34s-1.06,.11-1.5,.32c-.45,.22-.8,.51-1.06,.88s-.39,.8-.39,1.28h-.94c.02-.71,.22-1.35,.58-1.91,.36-.56,.84-1,1.44-1.33,.6-.32,1.27-.49,2.01-.49,.8,0,1.52,.17,2.16,.5s1.14,.82,1.5,1.47c.37,.65,.55,1.43,.55,2.36v4.42c0,.18-.06,.33-.19,.46-.12,.12-.28,.19-.46,.19Z"/><path class="cls-4" d="M101.97,155.57c-.9,0-1.7-.21-2.41-.62-.71-.41-1.28-.98-1.69-1.69-.41-.71-.62-1.52-.62-2.43s.2-1.7,.6-2.41c.4-.71,.95-1.28,1.64-1.69,.69-.41,1.47-.62,2.35-.62,.76,0,1.44,.16,2.06,.48,.61,.32,1.1,.75,1.48,1.28v-5c0-.2,.06-.37,.19-.48,.12-.12,.28-.18,.48-.18s.35,.06,.48,.18c.12,.12,.19,.28,.19,.48v8.02c-.02,.88-.24,1.68-.65,2.39s-.97,1.27-1.68,1.67c-.71,.41-1.5,.61-2.39,.61Zm0-1.19c.66,0,1.24-.16,1.76-.47s.92-.73,1.22-1.27,.45-1.14,.45-1.82-.15-1.27-.45-1.81c-.3-.54-.71-.96-1.22-1.27-.52-.31-1.1-.46-1.76-.46s-1.23,.15-1.75,.46c-.52,.31-.94,.73-1.24,1.27-.31,.54-.46,1.14-.46,1.81s.15,1.29,.46,1.82,.72,.96,1.24,1.27c.52,.31,1.1,.47,1.75,.47Z"/><path class="cls-4" d="M115.57,155.49c-.19,0-.35-.06-.48-.19-.12-.12-.19-.28-.19-.48v-11.95c0-.19,.06-.35,.19-.48,.12-.12,.28-.19,.48-.19h3.06c.97,0,1.87,.16,2.68,.48,.81,.32,1.51,.78,2.1,1.38,.59,.59,1.04,1.29,1.37,2.1,.32,.81,.48,1.7,.48,2.67s-.16,1.87-.48,2.68c-.32,.81-.78,1.51-1.37,2.11-.59,.59-1.29,1.05-2.1,1.38s-1.7,.48-2.68,.48h-3.06Zm.66-1.19h2.4c1.04,0,1.96-.23,2.76-.71,.8-.47,1.42-1.12,1.88-1.94,.45-.82,.68-1.76,.68-2.81s-.23-1.99-.68-2.81c-.45-.82-1.08-1.46-1.88-1.93s-1.72-.7-2.76-.7h-2.4v10.9Z"/><path class="cls-4" d="M132.05,155.57c-.92,0-1.73-.2-2.44-.6-.71-.4-1.26-.96-1.67-1.67-.4-.71-.6-1.53-.6-2.45s.19-1.75,.57-2.46c.38-.71,.9-1.27,1.57-1.67,.67-.41,1.44-.61,2.31-.61s1.61,.2,2.25,.59c.64,.39,1.14,.93,1.49,1.62,.35,.69,.53,1.48,.53,2.36,0,.18-.06,.33-.17,.43-.11,.11-.26,.16-.44,.16h-7.23v-1.09h7.36l-.73,.53c.01-.66-.11-1.25-.36-1.77-.25-.52-.6-.93-1.06-1.22-.46-.29-1.01-.44-1.64-.44s-1.21,.15-1.7,.46-.86,.73-1.13,1.27c-.27,.54-.4,1.15-.4,1.84s.15,1.3,.45,1.84c.3,.53,.71,.95,1.23,1.26,.52,.31,1.12,.46,1.8,.46,.41,0,.82-.07,1.23-.21,.41-.14,.75-.32,.99-.54,.12-.1,.27-.16,.43-.16,.16,0,.29,.04,.41,.13,.15,.14,.22,.28,.23,.44,0,.16-.06,.29-.2,.41-.37,.32-.85,.58-1.43,.79s-1.13,.31-1.67,.31Z"/><path class="cls-4" d="M141.11,155.49c-.27,0-.48-.15-.61-.44l-3.77-8.01c-.07-.15-.07-.29-.02-.44s.17-.26,.34-.34c.16-.08,.31-.09,.46-.03,.15,.06,.26,.16,.34,.31l3.62,7.84h-.7l3.57-7.84c.07-.16,.18-.26,.35-.31s.33-.04,.49,.03c.16,.08,.27,.2,.32,.35s.05,.3-.02,.43l-3.72,8.02c-.14,.29-.35,.44-.65,.44Z"/><path class="cls-4" d="M151.21,155.57c-.92,0-1.73-.2-2.44-.6-.71-.4-1.26-.96-1.67-1.67-.4-.71-.6-1.53-.6-2.45s.19-1.75,.57-2.46c.38-.71,.9-1.27,1.57-1.67,.67-.41,1.44-.61,2.31-.61s1.61,.2,2.25,.59c.64,.39,1.14,.93,1.49,1.62,.35,.69,.53,1.48,.53,2.36,0,.18-.06,.33-.17,.43-.11,.11-.26,.16-.44,.16h-7.23v-1.09h7.36l-.73,.53c.01-.66-.11-1.25-.36-1.77-.25-.52-.6-.93-1.06-1.22-.46-.29-1.01-.44-1.64-.44s-1.21,.15-1.7,.46-.86,.73-1.13,1.27c-.27,.54-.4,1.15-.4,1.84s.15,1.3,.45,1.84c.3,.53,.71,.95,1.23,1.26,.52,.31,1.12,.46,1.8,.46,.41,0,.82-.07,1.23-.21,.41-.14,.75-.32,.99-.54,.12-.1,.27-.16,.43-.16,.16,0,.29,.04,.41,.13,.15,.14,.22,.28,.23,.44,0,.16-.06,.29-.2,.41-.37,.32-.85,.58-1.43,.79s-1.13,.31-1.67,.31Z"/><path class="cls-4" d="M159.43,155.49c-.45,0-.86-.12-1.22-.37-.36-.25-.63-.59-.83-1.04-.2-.44-.3-.95-.3-1.53v-9.69c0-.19,.06-.35,.18-.47s.28-.18,.47-.18,.35,.06,.47,.18,.18,.28,.18,.47v9.69c0,.49,.1,.88,.3,1.19s.45,.46,.76,.46h.42c.17,0,.31,.06,.41,.18,.1,.12,.15,.27,.15,.47s-.07,.35-.21,.47-.33,.18-.55,.18h-.22Z"/><path class="cls-4" d="M165.94,155.57c-.91,0-1.72-.2-2.43-.61-.71-.41-1.28-.97-1.68-1.68-.41-.71-.61-1.52-.61-2.43s.2-1.73,.61-2.45c.41-.71,.97-1.28,1.68-1.68,.71-.41,1.52-.61,2.43-.61s1.71,.2,2.42,.61c.71,.41,1.27,.97,1.67,1.68,.41,.71,.62,1.53,.63,2.45,0,.91-.21,1.72-.62,2.43-.41,.71-.97,1.28-1.68,1.68-.71,.41-1.52,.61-2.42,.61Zm0-1.19c.66,0,1.25-.15,1.77-.46,.52-.31,.93-.72,1.22-1.26,.29-.53,.44-1.14,.44-1.82s-.15-1.29-.44-1.83c-.29-.54-.7-.96-1.22-1.27-.52-.31-1.11-.46-1.77-.46s-1.25,.15-1.77,.46c-.52,.31-.93,.73-1.23,1.27-.3,.54-.45,1.15-.45,1.83s.15,1.29,.45,1.82c.3,.53,.71,.95,1.23,1.26,.52,.31,1.11,.46,1.77,.46Z"/><path class="cls-4" d="M173.88,159.46c-.2,0-.37-.06-.48-.18-.12-.12-.18-.28-.18-.48v-8.02c.01-.88,.22-1.68,.64-2.39,.41-.71,.97-1.27,1.68-1.67,.71-.41,1.5-.61,2.39-.61s1.72,.21,2.43,.62c.71,.41,1.28,.98,1.69,1.69s.62,1.52,.62,2.43-.2,1.7-.6,2.41c-.4,.71-.95,1.28-1.64,1.69-.69,.41-1.47,.62-2.35,.62-.76,0-1.45-.16-2.07-.48-.62-.32-1.11-.75-1.49-1.28v5c0,.2-.06,.37-.18,.48s-.27,.18-.47,.18Zm4.05-5.08c.66,0,1.25-.15,1.77-.46,.52-.31,.93-.73,1.23-1.27,.3-.54,.45-1.14,.45-1.81s-.15-1.29-.45-1.82c-.3-.53-.71-.96-1.23-1.27s-1.11-.47-1.77-.47-1.23,.16-1.75,.47c-.52,.31-.93,.73-1.22,1.27-.29,.53-.44,1.14-.44,1.82s.15,1.27,.44,1.81c.29,.54,.7,.96,1.22,1.27,.52,.31,1.1,.46,1.75,.46Z"/><path class="cls-4" d="M189.46,155.57c-.92,0-1.73-.2-2.44-.6-.71-.4-1.26-.96-1.67-1.67-.4-.71-.6-1.53-.6-2.45s.19-1.75,.57-2.46c.38-.71,.9-1.27,1.57-1.67,.67-.41,1.44-.61,2.31-.61s1.61,.2,2.25,.59c.64,.39,1.14,.93,1.49,1.62,.35,.69,.53,1.48,.53,2.36,0,.18-.06,.33-.17,.43-.11,.11-.26,.16-.44,.16h-7.23v-1.09h7.36l-.73,.53c.01-.66-.11-1.25-.36-1.77-.25-.52-.6-.93-1.06-1.22-.46-.29-1.01-.44-1.64-.44s-1.21,.15-1.7,.46-.86,.73-1.13,1.27c-.27,.54-.4,1.15-.4,1.84s.15,1.3,.45,1.84c.3,.53,.71,.95,1.23,1.26,.52,.31,1.12,.46,1.8,.46,.41,0,.82-.07,1.23-.21,.41-.14,.75-.32,.99-.54,.12-.1,.27-.16,.43-.16,.16,0,.29,.04,.41,.13,.15,.14,.22,.28,.23,.44,0,.16-.06,.29-.2,.41-.37,.32-.85,.58-1.43,.79s-1.13,.31-1.67,.31Z"/><path class="cls-4" d="M196.32,155.49c-.2,0-.36-.06-.48-.17s-.17-.27-.17-.48v-8.01c0-.2,.06-.36,.17-.48s.27-.17,.48-.17,.36,.06,.48,.17,.17,.27,.17,.48v8.01c0,.2-.06,.36-.17,.48s-.27,.17-.48,.17Zm-.1-5.73c.03-.7,.22-1.33,.55-1.89,.33-.55,.77-.99,1.31-1.31s1.14-.48,1.79-.48c.52,0,.92,.07,1.21,.22s.39,.36,.32,.65c-.04,.17-.12,.28-.23,.34-.11,.06-.24,.08-.39,.07-.15-.01-.33-.02-.52-.03-.63-.06-1.2,0-1.69,.2-.49,.19-.88,.47-1.17,.86-.29,.39-.43,.84-.43,1.38h-.75Z"/></g></svg>