<?xml version="1.0" encoding="UTF-8"?><svg id="Layer_1" xmlns="http://www.w3.org/2000/svg" viewBox="0 0 469.62 439.45"><defs><style>.cls-1,.cls-2,.cls-3,.cls-4,.cls-5{stroke:#444;}.cls-1,.cls-6,.cls-7,.cls-8,.cls-9{fill:#eee;}.cls-1,.cls-6,.cls-3,.cls-4{stroke-miterlimit:10;}.cls-10,.cls-2,.cls-11,.cls-12,.cls-13,.cls-7,.cls-14,.cls-15,.cls-16,.cls-17,.cls-18,.cls-19,.cls-20,.cls-5,.cls-21,.cls-22,.cls-23,.cls-24,.cls-25,.cls-8,.cls-26,.cls-27{stroke-linecap:round;stroke-linejoin:round;}.cls-10,.cls-6,.cls-17,.cls-18,.cls-21,.cls-23,.cls-8,.cls-26{stroke:#333;}.cls-10,.cls-28{fill:#999;}.cls-2,.cls-13,.cls-14,.cls-17,.cls-19,.cls-20,.cls-23,.cls-25,.cls-27{fill:none;}.cls-11{fill:#757575;}.cls-11,.cls-12,.cls-7,.cls-15,.cls-16,.cls-19,.cls-20,.cls-22,.cls-24{stroke:#263238;}.cls-29,.cls-24{fill:#777;}.cls-30,.cls-31{fill:#3e3e3e;}.cls-12,.cls-4,.cls-32{fill:#bbb;}.cls-13,.cls-14{stroke:#eee;}.cls-13,.cls-19,.cls-23,.cls-25,.cls-27{stroke-width:2px;}.cls-33,.cls-16,.cls-26{fill:#333;}.cls-31{isolation:isolate;opacity:.7;}.cls-34,.cls-18{fill:#444;}.cls-15{fill:#fff;}.cls-3,.cls-22{fill:#263238;}.cls-5,.cls-35{fill:#ccc;}.cls-21{fill:#222;}.cls-25{stroke:#555;}.cls-27{stroke:#777;}</style></defs><g id="freepik--background-simple--inject-38"><path class="cls-30" d="M316.73,8.53s-77.4-27.52-153.37,16.3C87.39,68.65,49.03,155.62,16.11,225.29c-32.92,69.67-14,140.55,44,172.86,58,32.31,97.43-15.32,178.79-17.64s103.27,9.31,170.83-36.65,79.71-154.51,26.46-234.82S316.73,8.53,316.73,8.53Z"/><path class="cls-31" d="M316.73,8.53s-77.4-27.52-153.37,16.3C87.39,68.65,49.03,155.62,16.11,225.29c-32.92,69.67-14,140.55,44,172.86,58,32.31,97.43-15.32,178.79-17.64s103.27,9.31,170.83-36.65,79.71-154.51,26.46-234.82S316.73,8.53,316.73,8.53Z"/></g><g id="freepik--Board--inject-38"><rect class="cls-17" x="37.47" y="48.95" width="245.64" height="185.92"/><rect class="cls-10" x="43.2" y="53.88" width="234.17" height="176.07"/><path class="cls-23" d="M114.58,79.72s-38.26-2.77-41.48,3.23-.93,115.7,.92,117.08,53.47,2.3,58.54,.46-1.83-113.4-1.83-116.63-12-4.61-12-4.61"/><path class="cls-23" d="M77.05,170.52c.08,14.46,.39,25.06,1.12,25.35,2.3,.92,51.16,5.07,52.54,.46s-3.69-108.78-3.69-108.78"/><path class="cls-23" d="M125.18,87.09s-46.55-1.84-47,.46c-.3,1.47-1.15,44.66-1.14,76.06"/><line class="cls-23" x1="79.55" y1="95.39" x2="124.72" y2="95.39"/><path class="cls-25" d="M120.57,93.3c-2.76,2.92,0,0,1.85-4.17s-1.85,.83-6,4.17-1.84,.84-.46-3.75-1.38,0-5.07,2.92-1.84,1.67-.46-3.34,0,0-5.53,3.34-2.77,3.33,0-1.67-1.84,0-6.91,1.67,0,0,1.84-4.59-3.23,1.25-6.91,3.75,0,0,.92-2.92-2.31,.84-6,4.59,0,0,.46-3.34-4.15,5.43-4.15,5.43c0,0,1.38-8.35,.46-6.26-.61,1.34-1.39,2.6-2.31,3.75"/><rect class="cls-27" x="81.85" y="103.22" width="22.59" height="23.51" transform="translate(-4.26 3.59) rotate(-2.16)"/><polyline class="cls-25" points="86.46 103.22 82.78 107.37 90.61 104.61 82.78 111.98 95.68 103.68 82.78 117.51 100.29 104.61 81.85 121.66 103.98 106.45 81.85 126.73 103.98 111.98 88.31 125.81 104.44 117.05 94.3 125.35 103.98 122.12 102.13 125.35"/><rect class="cls-27" x="106.64" y="175.13" width="17.27" height="17.98"/><polyline class="cls-25" points="110.16 175.13 107.34 178.3 113.33 176.19 107.34 181.83 117.21 175.48 107.34 186.06 120.73 176.19 106.64 189.23 123.55 177.6 106.64 193.11 123.55 181.83 111.57 192.4 123.91 185.7 116.15 192.05 123.55 189.58 122.14 192.05"/><line class="cls-13" x1="81.39" y1="135.49" x2="125.64" y2="135.49"/><line class="cls-13" x1="80.93" y1="139.64" x2="124.72" y2="140.1"/><line class="cls-13" x1="109.05" y1="104.61" x2="123.34" y2="104.61"/><line class="cls-13" x1="109.05" y1="110.14" x2="123.34" y2="110.14"/><line class="cls-13" x1="109.05" y1="115.67" x2="123.34" y2="115.67"/><line class="cls-13" x1="109.05" y1="121.2" x2="123.34" y2="121.2"/><rect class="cls-27" x="81.85" y="142.4" width="42.87" height="20.74"/><polyline class="cls-25" points="81.39 146.55 87.38 142.86 80.47 153.46 91.99 142.86 81.85 158.08 99.83 142.4 84.16 160.84 103.52 142.86 88.77 160.84 109.97 142.4 92.92 162.68 114.12 142.86 97.99 161.76 119.65 142.4 103.06 162.68 124.72 142.4 109.05 162.22 123.8 149.32 114.12 161.3 123.8 154.85 121.9 157.93 120.11 160.84"/><line class="cls-13" x1="83.7" y1="168.68" x2="123.34" y2="168.68"/><line class="cls-13" x1="82.78" y1="173.75" x2="95.68" y2="173.75"/><line class="cls-23" x1="132.56" y1="89.86" x2="164.2" y2="85.97"/><line class="cls-23" x1="127.49" y1="112.44" x2="160.67" y2="112.44"/><line class="cls-23" x1="74.94" y1="154.39" x2="60.65" y2="159.46"/><path class="cls-19" d="M115.5,196.33s-2.76,14.29,16.13,18"/><polyline class="cls-19" points="128.87 210.62 133.48 214.77 127.02 216.61"/><polyline class="cls-23" points="156.52 108.29 163.9 112.9 157.45 115.67"/><polyline class="cls-23" points="158.21 84.59 166.04 85.51 160.51 90.58"/><polyline class="cls-23" points="62.49 154.85 54.66 161.3 64.34 161.76"/><rect class="cls-29" x="166.2" y="108.29" width="17.52" height="18.44"/><line class="cls-13" x1="170.35" y1="112.44" x2="180.49" y2="112.9"/><line class="cls-13" x1="170.35" y1="116.13" x2="180.49" y2="116.59"/><line class="cls-13" x1="170.35" y1="119.82" x2="180.49" y2="120.28"/><rect class="cls-29" x="139.48" y="134.1" width="17.52" height="18.44" transform="translate(-15.77 18.36) rotate(-6.73)"/><line class="cls-13" x1="143.06" y1="138.83" x2="153.18" y2="138.1"/><line class="cls-13" x1="143.49" y1="142.49" x2="153.61" y2="141.76"/><line class="cls-13" x1="143.92" y1="146.15" x2="154.05" y2="145.42"/><rect class="cls-29" x="48.69" y="165.44" width="17.52" height="18.44" transform="translate(-20.07 7.94) rotate(-6.73)"/><line class="cls-13" x1="52.25" y1="170.17" x2="62.38" y2="169.44"/><line class="cls-13" x1="52.68" y1="173.84" x2="62.81" y2="173.11"/><line class="cls-13" x1="53.12" y1="177.5" x2="63.24" y2="176.77"/><rect class="cls-29" x="136.69" y="202.33" width="18.44" height="17.52" transform="translate(-79.42 333.86) rotate(-83.93)"/><line class="cls-13" x1="141.88" y1="205.55" x2="151.91" y2="207.08"/><line class="cls-13" x1="141.49" y1="209.22" x2="151.52" y2="210.75"/><line class="cls-13" x1="141.1" y1="212.89" x2="151.13" y2="214.42"/><rect class="cls-18" x="37.47" y="234.87" width="245.63" height="6.28"/></g><g id="freepik--Device--inject-38"><path class="cls-18" d="M381.67,279.88v-11.72h-35.27v11.72c0,3.84-1.33,7.56-3.75,10.54l-1.54,1.91h45.85l-1.54-1.91c-2.42-2.98-3.75-6.7-3.75-10.54Z"/><path class="cls-7" d="M379.67,279.88v-11.72h-35.27v11.72c0,3.84-1.33,7.56-3.75,10.54l-1.54,1.91h45.85l-1.54-1.91c-2.42-2.98-3.75-6.7-3.75-10.54Z"/><rect class="cls-34" x="344.54" y="271.47" width="35.41" height="3.59"/><rect class="cls-26" x="291.15" y="167.76" width="141.76" height="104.09" rx="8.48" ry="8.48"/><rect class="cls-8" x="294.96" y="167.76" width="141.76" height="104.09" rx="8.48" ry="8.48"/><path class="cls-6" d="M291.15,255.67h145.57v7.7c0,4.68-3.9,8.48-8.71,8.48h-128.15c-4.81,0-8.71-3.8-8.71-8.48h0v-7.7h-.01Z"/><rect class="cls-29" x="298.28" y="174.24" width="127.5" height="73.54"/><rect class="cls-34" x="314.53" y="181.9" width="31.16" height="57.88" rx="3.04" ry="3.04"/><rect class="cls-32" x="317.15" y="186.75" width="25.93" height="48.16"/><rect class="cls-4" x="353.79" y="187.56" width="23.47" height="2.43"/><rect class="cls-4" x="354.2" y="192.83" width="10.93" height="11.33"/><rect class="cls-1" x="319.42" y="190.84" width="10.93" height="11.33"/><rect class="cls-4" x="369.79" y="227.63" width="5.85" height="6.07"/><rect class="cls-4" x="354.47" y="212.25" width="22.26" height="11.33"/><line class="cls-14" x1="367.15" y1="193.64" x2="376.05" y2="193.64"/><line class="cls-14" x1="367.15" y1="196.47" x2="376.05" y2="196.47"/><line class="cls-14" x1="367.15" y1="199.3" x2="376.05" y2="199.3"/><line class="cls-14" x1="367.15" y1="202.13" x2="376.05" y2="202.13"/><line class="cls-14" x1="354.87" y1="208.61" x2="376.32" y2="208.61"/><line class="cls-14" x1="354.87" y1="226.42" x2="376.32" y2="226.42"/><rect class="cls-2" x="351.77" y="185.14" width="27.52" height="51"/><rect class="cls-28" x="386.98" y="185.14" width="25.9" height="19.02"/><rect class="cls-9" x="386.98" y="185.14" width="25.9" height="4.05"/><rect class="cls-17" x="388.99" y="192.13" width="6.77" height="6.55"/><rect class="cls-17" x="402.53" y="192.13" width="6.77" height="6.55"/><path class="cls-33" d="M410.39,187.44c0,.55-.45,1-1,1s-1-.45-1-1,.45-1,1-1,1,.45,1,1Z"/><circle class="cls-33" cx="404.71" cy="187.44" r=".98"/><rect class="cls-28" x="390.98" y="214.47" width="19.83" height="14.57"/><rect class="cls-9" x="390.98" y="214.47" width="19.83" height="3.1"/><path class="cls-33" d="M408.91,216.23c0,.42-.33,.76-.75,.77s-.76-.33-.77-.75c0-.42,.33-.76,.75-.77,0,0,0,0,0,0,.42,0,.75,.33,.76,.75Z"/><path class="cls-33" d="M405.31,216.23c0,.41-.34,.75-.75,.75s-.75-.34-.75-.75,.34-.75,.75-.75,.75,.34,.75,.75Z"/><rect class="cls-28" x="302.48" y="178.1" width="8.33" height="65.33"/><rect class="cls-9" x="302.48" y="178.1" width="8.33" height="3"/><rect class="cls-5" x="304.48" y="183.1" width="4" height="4.67"/><rect class="cls-5" x="304.48" y="190.76" width="4" height="4.67"/><rect class="cls-5" x="304.48" y="198.43" width="4" height="4.67"/><rect class="cls-5" x="304.48" y="206.1" width="4" height="4.67"/><rect class="cls-5" x="304.48" y="213.76" width="4" height="4.67"/><rect class="cls-5" x="304.48" y="221.43" width="4" height="4.67"/><rect class="cls-5" x="304.48" y="229.1" width="4" height="4.67"/><rect class="cls-5" x="304.48" y="236.76" width="4" height="4.67"/><rect class="cls-32" x="316.15" y="177.43" width="106" height="2.67"/><rect class="cls-32" x="316.15" y="242.1" width="106" height="2.67"/><rect class="cls-22" x="339.11" y="292.33" width="45.86" height="2.09"/><rect class="cls-8" x="308.48" y="290.62" width="106.47" height="3.8"/><line class="cls-3" x1="342.25" y1="188.9" x2="318.78" y2="188.9"/><rect class="cls-1" x="334.78" y="226.54" width="5.85" height="6.07"/><line class="cls-2" x1="332.14" y1="192.55" x2="341.04" y2="192.55"/><line class="cls-2" x1="332.14" y1="195.38" x2="341.04" y2="195.38"/><line class="cls-2" x1="332.14" y1="198.21" x2="341.04" y2="198.21"/><line class="cls-2" x1="332.14" y1="201.04" x2="341.04" y2="201.04"/><line class="cls-2" x1="319.86" y1="207.52" x2="341.31" y2="207.52"/><line class="cls-2" x1="319.86" y1="225.33" x2="341.31" y2="225.33"/><rect class="cls-1" x="319.38" y="210.84" width="22.26" height="11.33"/></g><g id="freepik--Desk--inject-38"><polygon class="cls-8" points="213.07 438.95 208.74 438.95 206.57 306.28 215.24 306.28 213.07 438.95"/><polygon class="cls-21" points="213.07 438.95 211.16 438.95 211.42 306.28 215.24 306.28 213.07 438.95"/><polygon class="cls-8" points="274.8 438.95 270.47 438.95 268.3 306.28 276.97 306.28 274.8 438.95"/><polygon class="cls-8" points="274.8 438.95 272.89 438.95 273.15 306.28 276.97 306.28 274.8 438.95"/><polygon class="cls-21" points="252.7 438.95 248.36 438.95 246.2 306.28 254.86 306.28 252.7 438.95"/><polygon class="cls-26" points="252.7 438.95 250.79 438.95 251.04 306.28 254.86 306.28 252.7 438.95"/><polygon class="cls-8" points="294.41 438.95 290.07 438.95 287.91 306.28 296.57 306.28 294.41 438.95"/><polygon class="cls-8" points="294.41 438.95 292.49 438.95 292.75 306.28 296.57 306.28 294.41 438.95"/><rect class="cls-8" x="229.68" y="308.31" width="67.98" height="83"/><rect class="cls-8" x="210.91" y="308.31" width="67.98" height="83"/><polygon class="cls-8" points="416.19 438.95 411.86 438.95 409.69 306.28 418.36 306.28 416.19 438.95"/><polygon class="cls-8" points="416.19 438.95 414.28 438.95 414.54 306.28 418.36 306.28 416.19 438.95"/><polygon class="cls-8" points="455.82 438.95 451.48 438.95 449.32 306.28 457.98 306.28 455.82 438.95"/><polygon class="cls-8" points="455.82 438.95 453.91 438.95 454.16 306.28 457.98 306.28 455.82 438.95"/><rect class="cls-8" x="200.86" y="301.28" width="259.86" height="9.13"/><rect class="cls-8" x="422.36" y="301.28" width="38.36" height="9.13"/><rect class="cls-26" x="200.86" y="301.28" width="259.86" height="4.56"/><rect class="cls-8" x="193.81" y="293.95" width="275.31" height="9.13"/><rect class="cls-8" x="430.76" y="293.95" width="38.36" height="9.13"/><rect class="cls-8" x="215.23" y="316.28" width="59.5" height="29"/><rect class="cls-26" x="238.48" y="327.78" width="13" height="4.5"/><rect class="cls-8" x="215.23" y="352.78" width="59.5" height="29"/><rect class="cls-26" x="238.48" y="364.28" width="13" height="4.5"/></g><g id="freepik--Chair--inject-38"><rect class="cls-35" x="366.32" y="325.66" width="17.78" height="35.76"/><rect class="cls-35" x="370.77" y="348.72" width="8.89" height="49.52"/><path class="cls-35" d="M378.83,394.43s7.47,8.48,26.67,11.43c10.14,1.56,20.7,3.5,29.86,8.35,5.89,3.12,17.62,9.95,17.62,17.75,.03,3.87-3.08,7.02-6.94,7.06-3.87,.03-7.02-3.08-7.06-6.94-.01-1.81,.67-3.56,1.92-4.87-4.8-7.22-12.23-12.26-20.71-14.05-14.6-3.18-25.26-1.88-45.8-15.54l4.44-3.18Z"/><path class="cls-35" d="M372.48,394.43s-7.47,8.48-26.67,11.43c-10.14,1.56-20.7,3.5-29.86,8.35-5.9,3.12-17.62,9.95-17.62,17.75-.04,3.87,3.07,7.03,6.93,7.07,3.87,.04,7.03-3.07,7.07-6.93,.02-1.82-.67-3.57-1.93-4.89,4.8-7.21,12.23-12.26,20.71-14.05,14.61-3.18,25.27-1.88,45.81-15.54l-4.44-3.18Z"/><rect class="cls-35" x="371.52" y="425.83" width="8.03" height="13.12" rx=".66" ry=".66"/><rect class="cls-35" x="373.63" y="395.62" width="3.81" height="43.33"/><path class="cls-35" d="M418.27,222.41c-2.22,11.84-3.56,23.82-4,35.86-.29,9.28-.44,17.23-.58,24.24-.42,21.79-.66,33.87-4.09,37.12-.44,.3-3.28,2.05-9.22,2.55-1.66,.14-6.94,.21-14.12,.25-22.77-.07-46.7-.26-47.08-.26h-1.39c-.06,0-.11,.11-.16,.16-13.68-.08-17.2-.16-17.45-.16h-1.39c-2.87,2.49-1.16,5.69,1.34,5.71,1.87,0,34.46,.29,56.75,.29h26c11.67,0,21.34-.08,24-.3,8.25-.68,11.95-3.47,12.34-3.79,5.5-4.88,5.71-15.59,6.22-41.45,.13-7,.29-14.94,.57-24.18,.45-12.09,1.82-24.12,4.1-36l-31.84-.04Z"/></g><g id="freepik--Character--inject-38"><path class="cls-15" d="M241.48,409.12l2.25,11.75s-2,4.25-9.75,7.75-11.5,5-11.5,6-.5,3.25,1.5,4,44.5,0,44.5,0c0,0,2.25-1,2.25-5.75s-2-13.5-2-15.5-1.41-6.82-1.41-7.5-17.09,.25-17.09,.25c0,0-5-4.75-8.75-1Z"/><path class="cls-15" d="M250.23,410.12s1.25,11.25,2,12,16.5,.75,16.5,.75"/><line class="cls-20" x1="268.73" y1="417.37" x2="251.23" y2="417.62"/><line class="cls-20" x1="222.48" y1="436.62" x2="270.23" y2="436.62"/><path class="cls-16" d="M272.73,268.2s-13.86,46.66-15.56,53.09,8.12,62.89,8.12,63.9,1.35,4.06,1.35,7.44-1.35,4.39-.67,5.41,3,3.38,2.7,5.41c-.1,1.56-.82,3.02-2,4.06-.75,.78-1.67,1.36-2.7,1.69h-8.12s-2-15.22-7.44-55.45,3.39-63.23,5.08-70.67c1.15-4.8,2.85-9.45,5.07-13.86l14.17-1.02Z"/><path class="cls-15" d="M229.98,409.12l2.25,11.75s-2,4.25-9.75,7.75-11.5,5-11.5,6-.5,3.25,1.5,4,44.5,0,44.5,0c0,0,2.25-1,2.25-5.75s-2-13.5-2-15.5-1.41-6.82-1.41-7.5-17.09,.25-17.09,.25c0,0-5-4.75-8.75-1Z"/><path class="cls-15" d="M238.73,410.12s1.25,11.25,2,12,16.5,.75,16.5,.75"/><line class="cls-20" x1="257.23" y1="417.37" x2="239.73" y2="417.62"/><line class="cls-20" x1="210.98" y1="436.62" x2="258.73" y2="436.62"/><path class="cls-12" d="M216.94,268.2s-.34,29.42,1.35,41.93,8.12,41.59,9.13,57.48,2.71,23.34,2.71,23.34c0,0-2.4,2-2.4,4s1.35,2,1,5.08-1.69,4.05-.67,5.41,1.69,4.05,5.07,4.73,19.27,.34,22.65-.34,5.07-4.06,5.07-6.76-1-4.73-1-7.78,1.69-5.74,1.69-7.77-.68-3.05-.68-5.08-4.39-34.48-4.39-41.24-.34-29.76,.67-35.51,6.09-33.13,6.09-33.13l-46.29-4.36Z"/><path class="cls-16" d="M238.37,278.12c4.02,1.38,8.2,2.19,12.44,2.43,3.26,.09,6.5,.39,9.72,.91l1.82-8.5-23.98,5.16Z"/><path class="cls-20" d="M234.66,279.58s1.66,46.46,5,61.95,7.74,40.93,6.64,44.25-2.77,11.06-2.77,11.06c0,0,6.09-1.1,6.09,2.21s-8.85,5.54-6.64,7.2,4.41,3.48,4.41,3.48"/><path class="cls-16" d="M254.31,398.32s-18.36,3-13.15,4c5.21,1,15.14-.25,15.64-1.49s-1-2.76-2.49-2.51Z"/><polygon class="cls-29" points="173.27 77.1 172.76 97.86 192.34 97.69 192.51 76.93 173.27 77.1"/><path class="cls-15" d="M195.55,115.41s-4.22-4.22-6.08-8.1-4.55-6.24-4.55-8.94,1.18-9,.67-11.48,0-7.76,1.69-7.76c1.44,0,2.6,1.16,2.6,2.6,0,.2-.02,.4-.07,.6-.34,1.69,1,7.6,1,7.6,0,0,1.35-11.31,1.52-12s2.53-.68,3.55-.17,2.19,.33,2.19,2.53-.51,4.72-.51,5.23,4.73,3.21,4.9,5.23-.34,6.92-1.52,9c-.81,1.26-1.48,2.6-2,4-.17,.67,4.56,7.76,4.56,7.76l-7.95,3.9Z"/><path class="cls-24" d="M203.42,108.28l-11.5,8.79s19.61,40.57,20.29,41.88,14.87,10.15,14.87,10.15l21.3-26.38s-26.71-8.45-27.38-9.46-17.58-24.98-17.58-24.98Z"/><path class="cls-15" d="M216.98,257.37l-1,15.75s13,5.5,27,5.25,32.75-5.75,32.75-5.75l2.75-15.5s-33.75,2.75-44,1.75-17.5-1.5-17.5-1.5Z"/><path class="cls-16" d="M206.98,252.37l-.75,4.5s10.59,5.78,34,8c14.41,1.33,28.94-.2,42.75-4.5l.25-7.75c-12.45,2.97-25.2,4.48-38,4.5-12.87-.33-25.69-1.92-38.25-4.75Z"/><path class="cls-24" d="M225.98,159.37s-8.25,14.5-11,25.75-8.25,63.25-9,66.25,16.75,9,28.25,9.25,37.25,.75,41.75-1,8.75-4.25,8.75-7,.25-13,.25-21.25-2.5-51.75-4.75-61.75-3.75-17-4.5-18.25-6.25-7.25-17.5-6.5c-8.78,.65-17.31,3.21-25,7.5-2.85,1.84-5.32,4.21-7.25,7Z"/><path class="cls-15" d="M150.58,175.53s-4.06,1.69-4.4,5.75,7.11,8.11,11.5,14.2,10.14,12.47,10.14,12.47l8.8,12.17,10.48-8.79-27.05-31.38s1.35-3-.34-4.06c-2.87-1.34-6.16-1.47-9.13-.36Z"/><path class="cls-15" d="M151.26,185l30.47-10.15s2,8.46,11.15,17.25c5.49,5.29,11.37,10.15,17.59,14.54l-27.39,15.55-31.82-37.19Z"/><path class="cls-15" d="M151.26,185c1.34-1.51,2.17-3.4,2.36-5.41,.19-1.92-1.11-3.67-3-4.06l30.09-8.79s5.75,2,1,8.11l-30.45,10.15Z"/><path class="cls-15" d="M191.58,217.15s-6.76-1-7.1-3-1.69-6.42-3-8.11-7.78-5.07-9.81-7.44-3.38-5.75-4.73-5.41-3.38,1.69-2.71,3,3.72,7.11,3.72,7.11l.68,2.36s-6.09-1-7.1-1.35c-.99-.28-2.03,.29-2.31,1.29-.07,.23-.09,.47-.06,.71,0,1.69-1.35,1.69,.34,2.7s3.72,2.37,3.72,2.37c0,0,2.37,5.41,3,6.42s6.09,3.39,7.1,4.06,6.43,2.37,9.13,3,8.79,3.05,8.79,3.05l1.69-7.78-1.35-2.98Z"/><path class="cls-24" d="M263.26,170.49s-.68,28.74-.68,30.09,1,29.08-2,31.44-17.92,5.41-39.56,4.74-31.11-5.41-31.11-5.41l1.69-14.2,41.25-3s-4.39-31.44-3.72-42.26,9.47-16.57,9.47-16.57"/><path class="cls-15" d="M218.26,83.07s-5.67,9.81-4.58,11.11,.22,3.71,.22,3.71c0,0-5.67,4.36-5.23,5.88s5,5.67,5,5.67c0,0,.87,11.77,2,12.86s8.5,2.39,10,2.61c.83,.1,1.64,.32,2.4,.66l4.35,23.53,24.41-22-3.92-10.46s-2.18-14-2-20.48-11.12-14.39-17.87-16.35-14.78,3.26-14.78,3.26Z"/><path class="cls-16" d="M222.83,69.77s-5.66-5.88-12.42-1.3-4.79,12,1.31,14.6,13.29,.65,10.9,3.27-3,8.28,.65,9.37,3.05,5.23,3.05,7,3,1.53,3.71,0,2.39-5.66,6.53-3.92,3.93,11.33,2.4,13.73-3.05,2.18-3.05,2.18c0,0,2.4,.87,.87,3.7l-1.52,2.84s3.48,4.14,12.2,2.61,10.68-5.45,9.37-8.71-4.36-3.71-1.09-8.5,11.34-10.47,10.68-21.36c-.43-7.19-17.43-14-17.43-14,0,0,3.92-6.54-5-10.68s-19.17,.66-18.52,5-2.64,4.17-2.64,4.17Z"/><path class="cls-20" d="M213.62,93.4s-2.77-.74-3,.57,0,7.84,0,7.84c.98,.61,2.14,.84,3.27,.66,1.53-.44,.65-5.89,.65-5.89"/><polyline class="cls-22" points="230.9 100.72 210.83 97.4 210.85 96.14 230.9 100.72"/><path class="cls-11" d="M259.67,120.34s-11.12,8.06-18.75,16.34-16.78,17.44-17.19,20.27,.43,7.19,4.79,2.61,12.42-10.67,18.53-11.11,15.47,2.62,20.26,3.27,7.85,2,9.59-.65-2.83-8.5-2.83-11.56,.65-8.28-1.53-12-9.17-8.26-12.87-7.17Z"/><path class="cls-22" d="M273.91,131.13c-.62,2.12-1.46,4.16-2.52,6.1-1.27,1.89-19.14,5.47-19.14,5.47,0,0,14.72-.84,17.45-.84s5.89,2.52,5.89,2.52l-1.47-4s.61-7.35-.21-9.25Z"/></g></svg>